<mxfile host="app.diagrams.net" agent="Mozilla/5.0 (Windows NT 10.0; Win64; x64; rv:137.0) Gecko/20100101 Firefox/137.0" version="26.2.13">
  <diagram name="Page-1" id="KWRqrJLE8olLCAl03Flf">
    <mxGraphModel dx="6136" dy="3478" grid="0" gridSize="10" guides="1" tooltips="1" connect="1" arrows="1" fold="1" page="0" pageScale="1" pageWidth="827" pageHeight="1169" math="0" shadow="0">
      <root>
        <mxCell id="0" />
        <mxCell id="1" parent="0" />
        <mxCell id="kSL2CXLgvnLuKP6OzrhX-1" value="&lt;i&gt;GameObject&lt;/i&gt;" style="swimlane;fontStyle=1;align=center;verticalAlign=top;childLayout=stackLayout;horizontal=1;startSize=26;horizontalStack=0;resizeParent=1;resizeParentMax=0;resizeLast=0;collapsible=1;marginBottom=0;whiteSpace=wrap;html=1;" parent="1" vertex="1">
          <mxGeometry x="-97.5" y="-426" width="160" height="56" as="geometry" />
        </mxCell>
        <mxCell id="kSL2CXLgvnLuKP6OzrhX-2" value="&lt;div&gt;+ position: Vector2D&lt;/div&gt;&lt;div&gt;&lt;br&gt;&lt;/div&gt;" style="text;strokeColor=none;fillColor=none;align=left;verticalAlign=top;spacingLeft=4;spacingRight=4;overflow=hidden;rotatable=0;points=[[0,0.5],[1,0.5]];portConstraint=eastwest;whiteSpace=wrap;html=1;" parent="kSL2CXLgvnLuKP6OzrhX-1" vertex="1">
          <mxGeometry y="26" width="160" height="22" as="geometry" />
        </mxCell>
        <mxCell id="kSL2CXLgvnLuKP6OzrhX-3" value="" style="line;strokeWidth=1;fillColor=none;align=left;verticalAlign=middle;spacingTop=-1;spacingLeft=3;spacingRight=3;rotatable=0;labelPosition=right;points=[];portConstraint=eastwest;strokeColor=inherit;" parent="kSL2CXLgvnLuKP6OzrhX-1" vertex="1">
          <mxGeometry y="48" width="160" height="8" as="geometry" />
        </mxCell>
        <mxCell id="kSL2CXLgvnLuKP6OzrhX-4" style="edgeStyle=orthogonalEdgeStyle;rounded=0;orthogonalLoop=1;jettySize=auto;html=1;exitX=0.5;exitY=0;exitDx=0;exitDy=0;" parent="1" source="kSL2CXLgvnLuKP6OzrhX-6" target="kSL2CXLgvnLuKP6OzrhX-75" edge="1">
          <mxGeometry relative="1" as="geometry" />
        </mxCell>
        <mxCell id="kSL2CXLgvnLuKP6OzrhX-5" style="edgeStyle=orthogonalEdgeStyle;rounded=0;orthogonalLoop=1;jettySize=auto;html=1;exitX=0.5;exitY=0;exitDx=0;exitDy=0;" parent="1" source="kSL2CXLgvnLuKP6OzrhX-6" target="kSL2CXLgvnLuKP6OzrhX-1" edge="1">
          <mxGeometry relative="1" as="geometry" />
        </mxCell>
        <mxCell id="kSL2CXLgvnLuKP6OzrhX-6" value="&lt;i&gt;Entity&lt;/i&gt;" style="swimlane;fontStyle=1;align=center;verticalAlign=top;childLayout=stackLayout;horizontal=1;startSize=26;horizontalStack=0;resizeParent=1;resizeParentMax=0;resizeLast=0;collapsible=1;marginBottom=0;whiteSpace=wrap;html=1;" parent="1" vertex="1">
          <mxGeometry x="138" y="-100" width="160" height="88" as="geometry" />
        </mxCell>
        <mxCell id="kSL2CXLgvnLuKP6OzrhX-7" value="&lt;div&gt;+ health: Int&lt;/div&gt;&lt;div&gt;+ sightDirection: Int&lt;/div&gt;&lt;div&gt;+ activeItem: Int&lt;/div&gt;" style="text;strokeColor=none;fillColor=none;align=left;verticalAlign=top;spacingLeft=4;spacingRight=4;overflow=hidden;rotatable=0;points=[[0,0.5],[1,0.5]];portConstraint=eastwest;whiteSpace=wrap;html=1;" parent="kSL2CXLgvnLuKP6OzrhX-6" vertex="1">
          <mxGeometry y="26" width="160" height="54" as="geometry" />
        </mxCell>
        <mxCell id="kSL2CXLgvnLuKP6OzrhX-8" value="" style="line;strokeWidth=1;fillColor=none;align=left;verticalAlign=middle;spacingTop=-1;spacingLeft=3;spacingRight=3;rotatable=0;labelPosition=right;points=[];portConstraint=eastwest;strokeColor=inherit;" parent="kSL2CXLgvnLuKP6OzrhX-6" vertex="1">
          <mxGeometry y="80" width="160" height="8" as="geometry" />
        </mxCell>
        <mxCell id="kSL2CXLgvnLuKP6OzrhX-9" style="edgeStyle=orthogonalEdgeStyle;rounded=0;orthogonalLoop=1;jettySize=auto;html=1;exitX=0.5;exitY=0;exitDx=0;exitDy=0;" parent="1" source="kSL2CXLgvnLuKP6OzrhX-11" target="kSL2CXLgvnLuKP6OzrhX-75" edge="1">
          <mxGeometry relative="1" as="geometry" />
        </mxCell>
        <mxCell id="kSL2CXLgvnLuKP6OzrhX-10" style="edgeStyle=orthogonalEdgeStyle;rounded=0;orthogonalLoop=1;jettySize=auto;html=1;exitX=0.5;exitY=0;exitDx=0;exitDy=0;" parent="1" source="kSL2CXLgvnLuKP6OzrhX-11" target="kSL2CXLgvnLuKP6OzrhX-1" edge="1">
          <mxGeometry relative="1" as="geometry">
            <Array as="points">
              <mxPoint x="-107.5" y="-100" />
              <mxPoint x="-107.5" y="-227" />
              <mxPoint x="-17.5" y="-227" />
            </Array>
          </mxGeometry>
        </mxCell>
        <mxCell id="kSL2CXLgvnLuKP6OzrhX-11" value="Wall" style="swimlane;fontStyle=1;align=center;verticalAlign=top;childLayout=stackLayout;horizontal=1;startSize=26;horizontalStack=0;resizeParent=1;resizeParentMax=0;resizeLast=0;collapsible=1;marginBottom=0;whiteSpace=wrap;html=1;" parent="1" vertex="1">
          <mxGeometry x="-67.5" y="-100" width="160" height="60" as="geometry" />
        </mxCell>
        <mxCell id="kSL2CXLgvnLuKP6OzrhX-12" value="static var paint: Paint" style="text;strokeColor=none;fillColor=none;align=left;verticalAlign=top;spacingLeft=4;spacingRight=4;overflow=hidden;rotatable=0;points=[[0,0.5],[1,0.5]];portConstraint=eastwest;whiteSpace=wrap;html=1;" parent="kSL2CXLgvnLuKP6OzrhX-11" vertex="1">
          <mxGeometry y="26" width="160" height="26" as="geometry" />
        </mxCell>
        <mxCell id="kSL2CXLgvnLuKP6OzrhX-13" value="" style="line;strokeWidth=1;fillColor=none;align=left;verticalAlign=middle;spacingTop=-1;spacingLeft=3;spacingRight=3;rotatable=0;labelPosition=right;points=[];portConstraint=eastwest;strokeColor=inherit;" parent="kSL2CXLgvnLuKP6OzrhX-11" vertex="1">
          <mxGeometry y="52" width="160" height="8" as="geometry" />
        </mxCell>
        <mxCell id="kSL2CXLgvnLuKP6OzrhX-14" value="Map" style="swimlane;fontStyle=1;align=center;verticalAlign=top;childLayout=stackLayout;horizontal=1;startSize=26;horizontalStack=0;resizeParent=1;resizeParentMax=0;resizeLast=0;collapsible=1;marginBottom=0;whiteSpace=wrap;html=1;" parent="1" vertex="1">
          <mxGeometry x="-447.5" y="-310" width="320" height="116" as="geometry" />
        </mxCell>
        <mxCell id="kSL2CXLgvnLuKP6OzrhX-15" value="" style="line;strokeWidth=1;fillColor=none;align=left;verticalAlign=middle;spacingTop=-1;spacingLeft=3;spacingRight=3;rotatable=0;labelPosition=right;points=[];portConstraint=eastwest;strokeColor=inherit;" parent="kSL2CXLgvnLuKP6OzrhX-14" vertex="1">
          <mxGeometry y="26" width="320" height="8" as="geometry" />
        </mxCell>
        <mxCell id="kSL2CXLgvnLuKP6OzrhX-16" value="&lt;div&gt;+ move(Entity, direction: String)&lt;/div&gt;&lt;div&gt;+ hurt(Entity, amount: Int)&lt;/div&gt;&lt;div&gt;+ getElementByPosition(Vector2D): GameObject?&lt;/div&gt;&lt;div&gt;+ checkInlineCollision(Vector2D, Vector2D): GameObject?&lt;/div&gt;&lt;div&gt;+ checkNextCollision(Vector2D, Vector2D): GameObject?&lt;/div&gt;" style="text;strokeColor=none;fillColor=none;align=left;verticalAlign=top;spacingLeft=4;spacingRight=4;overflow=hidden;rotatable=0;points=[[0,0.5],[1,0.5]];portConstraint=eastwest;whiteSpace=wrap;html=1;" parent="kSL2CXLgvnLuKP6OzrhX-14" vertex="1">
          <mxGeometry y="34" width="320" height="82" as="geometry" />
        </mxCell>
        <mxCell id="kSL2CXLgvnLuKP6OzrhX-17" style="edgeStyle=orthogonalEdgeStyle;rounded=0;orthogonalLoop=1;jettySize=auto;html=1;exitX=0.5;exitY=0;exitDx=0;exitDy=0;" parent="1" source="kSL2CXLgvnLuKP6OzrhX-18" target="kSL2CXLgvnLuKP6OzrhX-1" edge="1">
          <mxGeometry relative="1" as="geometry">
            <Array as="points">
              <mxPoint x="682.5" y="-500" />
              <mxPoint x="-17.5" y="-500" />
            </Array>
          </mxGeometry>
        </mxCell>
        <mxCell id="kSL2CXLgvnLuKP6OzrhX-18" value="&lt;i&gt;Item&lt;/i&gt;" style="swimlane;fontStyle=1;align=center;verticalAlign=top;childLayout=stackLayout;horizontal=1;startSize=26;horizontalStack=0;resizeParent=1;resizeParentMax=0;resizeLast=0;collapsible=1;marginBottom=0;whiteSpace=wrap;html=1;" parent="1" vertex="1">
          <mxGeometry x="602.5" y="-69" width="160" height="34" as="geometry" />
        </mxCell>
        <mxCell id="kSL2CXLgvnLuKP6OzrhX-19" value="" style="line;strokeWidth=1;fillColor=none;align=left;verticalAlign=middle;spacingTop=-1;spacingLeft=3;spacingRight=3;rotatable=0;labelPosition=right;points=[];portConstraint=eastwest;strokeColor=inherit;" parent="kSL2CXLgvnLuKP6OzrhX-18" vertex="1">
          <mxGeometry y="26" width="160" height="8" as="geometry" />
        </mxCell>
        <mxCell id="kSL2CXLgvnLuKP6OzrhX-20" style="edgeStyle=orthogonalEdgeStyle;rounded=0;orthogonalLoop=1;jettySize=auto;html=1;exitX=0.5;exitY=0;exitDx=0;exitDy=0;" parent="1" source="kSL2CXLgvnLuKP6OzrhX-21" target="kSL2CXLgvnLuKP6OzrhX-18" edge="1">
          <mxGeometry relative="1" as="geometry" />
        </mxCell>
        <mxCell id="kSL2CXLgvnLuKP6OzrhX-21" value="&lt;i&gt;Weapon&lt;/i&gt;" style="swimlane;fontStyle=1;align=center;verticalAlign=top;childLayout=stackLayout;horizontal=1;startSize=26;horizontalStack=0;resizeParent=1;resizeParentMax=0;resizeLast=0;collapsible=1;marginBottom=0;whiteSpace=wrap;html=1;" parent="1" vertex="1">
          <mxGeometry x="602.5" y="16" width="160" height="60" as="geometry" />
        </mxCell>
        <mxCell id="kSL2CXLgvnLuKP6OzrhX-22" value="+ damage: Int" style="text;strokeColor=none;fillColor=none;align=left;verticalAlign=top;spacingLeft=4;spacingRight=4;overflow=hidden;rotatable=0;points=[[0,0.5],[1,0.5]];portConstraint=eastwest;whiteSpace=wrap;html=1;" parent="kSL2CXLgvnLuKP6OzrhX-21" vertex="1">
          <mxGeometry y="26" width="160" height="26" as="geometry" />
        </mxCell>
        <mxCell id="kSL2CXLgvnLuKP6OzrhX-23" value="" style="line;strokeWidth=1;fillColor=none;align=left;verticalAlign=middle;spacingTop=-1;spacingLeft=3;spacingRight=3;rotatable=0;labelPosition=right;points=[];portConstraint=eastwest;strokeColor=inherit;" parent="kSL2CXLgvnLuKP6OzrhX-21" vertex="1">
          <mxGeometry y="52" width="160" height="8" as="geometry" />
        </mxCell>
        <mxCell id="kSL2CXLgvnLuKP6OzrhX-28" style="edgeStyle=orthogonalEdgeStyle;rounded=0;orthogonalLoop=1;jettySize=auto;html=1;exitX=0.5;exitY=0;exitDx=0;exitDy=0;entryX=0.5;entryY=1;entryDx=0;entryDy=0;" parent="1" source="kSL2CXLgvnLuKP6OzrhX-29" target="kSL2CXLgvnLuKP6OzrhX-6" edge="1">
          <mxGeometry relative="1" as="geometry" />
        </mxCell>
        <mxCell id="kSL2CXLgvnLuKP6OzrhX-29" value="&lt;div&gt;Player&lt;/div&gt;" style="swimlane;fontStyle=1;align=center;verticalAlign=top;childLayout=stackLayout;horizontal=1;startSize=26;horizontalStack=0;resizeParent=1;resizeParentMax=0;resizeLast=0;collapsible=1;marginBottom=0;whiteSpace=wrap;html=1;" parent="1" vertex="1">
          <mxGeometry x="66" y="115" width="160" height="34" as="geometry" />
        </mxCell>
        <mxCell id="kSL2CXLgvnLuKP6OzrhX-30" value="" style="line;strokeWidth=1;fillColor=none;align=left;verticalAlign=middle;spacingTop=-1;spacingLeft=3;spacingRight=3;rotatable=0;labelPosition=right;points=[];portConstraint=eastwest;strokeColor=inherit;" parent="kSL2CXLgvnLuKP6OzrhX-29" vertex="1">
          <mxGeometry y="26" width="160" height="8" as="geometry" />
        </mxCell>
        <mxCell id="kSL2CXLgvnLuKP6OzrhX-31" style="edgeStyle=orthogonalEdgeStyle;rounded=0;orthogonalLoop=1;jettySize=auto;html=1;exitX=0.5;exitY=0;exitDx=0;exitDy=0;" parent="1" source="kSL2CXLgvnLuKP6OzrhX-32" target="kSL2CXLgvnLuKP6OzrhX-6" edge="1">
          <mxGeometry relative="1" as="geometry" />
        </mxCell>
        <mxCell id="kSL2CXLgvnLuKP6OzrhX-32" value="Mob" style="swimlane;fontStyle=1;align=center;verticalAlign=top;childLayout=stackLayout;horizontal=1;startSize=26;horizontalStack=0;resizeParent=1;resizeParentMax=0;resizeLast=0;collapsible=1;marginBottom=0;whiteSpace=wrap;html=1;" parent="1" vertex="1">
          <mxGeometry x="242.5" y="110" width="160" height="80" as="geometry" />
        </mxCell>
        <mxCell id="kSL2CXLgvnLuKP6OzrhX-33" value="" style="line;strokeWidth=1;fillColor=none;align=left;verticalAlign=middle;spacingTop=-1;spacingLeft=3;spacingRight=3;rotatable=0;labelPosition=right;points=[];portConstraint=eastwest;strokeColor=inherit;" parent="kSL2CXLgvnLuKP6OzrhX-32" vertex="1">
          <mxGeometry y="26" width="160" height="8" as="geometry" />
        </mxCell>
        <mxCell id="kSL2CXLgvnLuKP6OzrhX-34" value="&lt;div&gt;+ setMovementPattern()&lt;/div&gt;&lt;div&gt;+ move()&lt;/div&gt;" style="text;strokeColor=none;fillColor=none;align=left;verticalAlign=top;spacingLeft=4;spacingRight=4;overflow=hidden;rotatable=0;points=[[0,0.5],[1,0.5]];portConstraint=eastwest;whiteSpace=wrap;html=1;" parent="kSL2CXLgvnLuKP6OzrhX-32" vertex="1">
          <mxGeometry y="34" width="160" height="46" as="geometry" />
        </mxCell>
        <mxCell id="kSL2CXLgvnLuKP6OzrhX-36" style="edgeStyle=orthogonalEdgeStyle;rounded=0;orthogonalLoop=1;jettySize=auto;html=1;exitX=0.5;exitY=0;exitDx=0;exitDy=0;" parent="1" source="kSL2CXLgvnLuKP6OzrhX-37" target="kSL2CXLgvnLuKP6OzrhX-11" edge="1">
          <mxGeometry relative="1" as="geometry" />
        </mxCell>
        <mxCell id="kSL2CXLgvnLuKP6OzrhX-37" value="Door" style="swimlane;fontStyle=1;align=center;verticalAlign=top;childLayout=stackLayout;horizontal=1;startSize=26;horizontalStack=0;resizeParent=1;resizeParentMax=0;resizeLast=0;collapsible=1;marginBottom=0;whiteSpace=wrap;html=1;" parent="1" vertex="1">
          <mxGeometry x="-76" y="-17" width="177" height="91" as="geometry" />
        </mxCell>
        <mxCell id="kSL2CXLgvnLuKP6OzrhX-38" value="&lt;div&gt;var unlocked: Boolean&lt;/div&gt;&lt;div&gt;static var paint: Paint&lt;/div&gt;&lt;div&gt;static var paintUnlocked: Paint&lt;/div&gt;" style="text;strokeColor=none;fillColor=none;align=left;verticalAlign=top;spacingLeft=4;spacingRight=4;overflow=hidden;rotatable=0;points=[[0,0.5],[1,0.5]];portConstraint=eastwest;whiteSpace=wrap;html=1;" parent="kSL2CXLgvnLuKP6OzrhX-37" vertex="1">
          <mxGeometry y="26" width="177" height="57" as="geometry" />
        </mxCell>
        <mxCell id="kSL2CXLgvnLuKP6OzrhX-39" value="" style="line;strokeWidth=1;fillColor=none;align=left;verticalAlign=middle;spacingTop=-1;spacingLeft=3;spacingRight=3;rotatable=0;labelPosition=right;points=[];portConstraint=eastwest;strokeColor=inherit;" parent="kSL2CXLgvnLuKP6OzrhX-37" vertex="1">
          <mxGeometry y="83" width="177" height="8" as="geometry" />
        </mxCell>
        <mxCell id="kSL2CXLgvnLuKP6OzrhX-41" style="edgeStyle=orthogonalEdgeStyle;rounded=0;orthogonalLoop=1;jettySize=auto;html=1;exitX=0.5;exitY=0;exitDx=0;exitDy=0;" parent="1" source="kSL2CXLgvnLuKP6OzrhX-42" target="kSL2CXLgvnLuKP6OzrhX-32" edge="1">
          <mxGeometry relative="1" as="geometry" />
        </mxCell>
        <mxCell id="kSL2CXLgvnLuKP6OzrhX-42" value="Boss" style="swimlane;fontStyle=1;align=center;verticalAlign=top;childLayout=stackLayout;horizontal=1;startSize=26;horizontalStack=0;resizeParent=1;resizeParentMax=0;resizeLast=0;collapsible=1;marginBottom=0;whiteSpace=wrap;html=1;" parent="1" vertex="1">
          <mxGeometry x="242.5" y="230" width="160" height="34" as="geometry" />
        </mxCell>
        <mxCell id="kSL2CXLgvnLuKP6OzrhX-43" value="" style="line;strokeWidth=1;fillColor=none;align=left;verticalAlign=middle;spacingTop=-1;spacingLeft=3;spacingRight=3;rotatable=0;labelPosition=right;points=[];portConstraint=eastwest;strokeColor=inherit;" parent="kSL2CXLgvnLuKP6OzrhX-42" vertex="1">
          <mxGeometry y="26" width="160" height="8" as="geometry" />
        </mxCell>
        <mxCell id="kSL2CXLgvnLuKP6OzrhX-44" style="edgeStyle=orthogonalEdgeStyle;rounded=0;orthogonalLoop=1;jettySize=auto;html=1;exitX=0.5;exitY=0;exitDx=0;exitDy=0;" parent="1" source="kSL2CXLgvnLuKP6OzrhX-45" target="kSL2CXLgvnLuKP6OzrhX-21" edge="1">
          <mxGeometry relative="1" as="geometry" />
        </mxCell>
        <mxCell id="kSL2CXLgvnLuKP6OzrhX-45" value="Knife" style="swimlane;fontStyle=1;align=center;verticalAlign=top;childLayout=stackLayout;horizontal=1;startSize=26;horizontalStack=0;resizeParent=1;resizeParentMax=0;resizeLast=0;collapsible=1;marginBottom=0;whiteSpace=wrap;html=1;" parent="1" vertex="1">
          <mxGeometry x="512.5" y="136" width="160" height="34" as="geometry" />
        </mxCell>
        <mxCell id="kSL2CXLgvnLuKP6OzrhX-46" value="" style="line;strokeWidth=1;fillColor=none;align=left;verticalAlign=middle;spacingTop=-1;spacingLeft=3;spacingRight=3;rotatable=0;labelPosition=right;points=[];portConstraint=eastwest;strokeColor=inherit;" parent="kSL2CXLgvnLuKP6OzrhX-45" vertex="1">
          <mxGeometry y="26" width="160" height="8" as="geometry" />
        </mxCell>
        <mxCell id="kSL2CXLgvnLuKP6OzrhX-48" style="edgeStyle=orthogonalEdgeStyle;rounded=0;orthogonalLoop=1;jettySize=auto;html=1;exitX=0.5;exitY=0;exitDx=0;exitDy=0;" parent="1" source="kSL2CXLgvnLuKP6OzrhX-49" target="kSL2CXLgvnLuKP6OzrhX-21" edge="1">
          <mxGeometry relative="1" as="geometry" />
        </mxCell>
        <mxCell id="kSL2CXLgvnLuKP6OzrhX-49" value="Gun" style="swimlane;fontStyle=1;align=center;verticalAlign=top;childLayout=stackLayout;horizontal=1;startSize=26;horizontalStack=0;resizeParent=1;resizeParentMax=0;resizeLast=0;collapsible=1;marginBottom=0;whiteSpace=wrap;html=1;" parent="1" vertex="1">
          <mxGeometry x="692.5" y="136" width="160" height="34" as="geometry" />
        </mxCell>
        <mxCell id="kSL2CXLgvnLuKP6OzrhX-51" value="" style="line;strokeWidth=1;fillColor=none;align=left;verticalAlign=middle;spacingTop=-1;spacingLeft=3;spacingRight=3;rotatable=0;labelPosition=right;points=[];portConstraint=eastwest;strokeColor=inherit;" parent="kSL2CXLgvnLuKP6OzrhX-49" vertex="1">
          <mxGeometry y="26" width="160" height="8" as="geometry" />
        </mxCell>
        <mxCell id="kSL2CXLgvnLuKP6OzrhX-53" value="Game" style="swimlane;fontStyle=1;align=center;verticalAlign=top;childLayout=stackLayout;horizontal=1;startSize=26;horizontalStack=0;resizeParent=1;resizeParentMax=0;resizeLast=0;collapsible=1;marginBottom=0;whiteSpace=wrap;html=1;" parent="1" vertex="1">
          <mxGeometry x="-963" y="-348" width="160" height="86" as="geometry" />
        </mxCell>
        <mxCell id="kSL2CXLgvnLuKP6OzrhX-54" value="" style="line;strokeWidth=1;fillColor=none;align=left;verticalAlign=middle;spacingTop=-1;spacingLeft=3;spacingRight=3;rotatable=0;labelPosition=right;points=[];portConstraint=eastwest;strokeColor=inherit;" parent="kSL2CXLgvnLuKP6OzrhX-53" vertex="1">
          <mxGeometry y="26" width="160" height="8" as="geometry" />
        </mxCell>
        <mxCell id="kSL2CXLgvnLuKP6OzrhX-55" value="+ load(file)" style="text;strokeColor=none;fillColor=none;align=left;verticalAlign=top;spacingLeft=4;spacingRight=4;overflow=hidden;rotatable=0;points=[[0,0.5],[1,0.5]];portConstraint=eastwest;whiteSpace=wrap;html=1;" parent="kSL2CXLgvnLuKP6OzrhX-53" vertex="1">
          <mxGeometry y="34" width="160" height="26" as="geometry" />
        </mxCell>
        <mxCell id="kSL2CXLgvnLuKP6OzrhX-56" value="+ run()" style="text;strokeColor=none;fillColor=none;align=left;verticalAlign=top;spacingLeft=4;spacingRight=4;overflow=hidden;rotatable=0;points=[[0,0.5],[1,0.5]];portConstraint=eastwest;whiteSpace=wrap;html=1;" parent="kSL2CXLgvnLuKP6OzrhX-53" vertex="1">
          <mxGeometry y="60" width="160" height="26" as="geometry" />
        </mxCell>
        <mxCell id="kSL2CXLgvnLuKP6OzrhX-68" value="" style="endArrow=diamondThin;endFill=1;endSize=24;html=1;rounded=0;" parent="1" source="kSL2CXLgvnLuKP6OzrhX-1" target="kSL2CXLgvnLuKP6OzrhX-14" edge="1">
          <mxGeometry width="160" relative="1" as="geometry">
            <mxPoint x="-177.5" y="-277.2" as="sourcePoint" />
            <mxPoint x="-17.5" y="-277.2" as="targetPoint" />
          </mxGeometry>
        </mxCell>
        <mxCell id="kSL2CXLgvnLuKP6OzrhX-69" value="1" style="text;html=1;align=center;verticalAlign=middle;whiteSpace=wrap;rounded=0;" parent="1" vertex="1">
          <mxGeometry x="-167.5" y="-340" width="20" height="10" as="geometry" />
        </mxCell>
        <mxCell id="kSL2CXLgvnLuKP6OzrhX-70" value="*" style="text;html=1;align=center;verticalAlign=middle;whiteSpace=wrap;rounded=0;" parent="1" vertex="1">
          <mxGeometry x="-117.5" y="-354" width="20" height="10" as="geometry" />
        </mxCell>
        <mxCell id="kSL2CXLgvnLuKP6OzrhX-72" value="" style="endArrow=diamondThin;endFill=0;endSize=24;html=1;rounded=0;" parent="1" source="kSL2CXLgvnLuKP6OzrhX-18" target="kSL2CXLgvnLuKP6OzrhX-6" edge="1">
          <mxGeometry width="160" relative="1" as="geometry">
            <mxPoint x="607.5" y="-96.69000000000005" as="sourcePoint" />
            <mxPoint x="492.5" y="-42.75757575757575" as="targetPoint" />
          </mxGeometry>
        </mxCell>
        <mxCell id="kSL2CXLgvnLuKP6OzrhX-73" value="1" style="text;html=1;align=center;verticalAlign=middle;whiteSpace=wrap;rounded=0;" parent="1" vertex="1">
          <mxGeometry x="572.5" y="-70" width="20" height="10" as="geometry" />
        </mxCell>
        <mxCell id="kSL2CXLgvnLuKP6OzrhX-74" value="*" style="text;html=1;align=center;verticalAlign=middle;whiteSpace=wrap;rounded=0;" parent="1" vertex="1">
          <mxGeometry x="332.5" y="-80" width="20" height="10" as="geometry" />
        </mxCell>
        <mxCell id="kSL2CXLgvnLuKP6OzrhX-75" value="«interface»&lt;i&gt; Drawable&lt;/i&gt;" style="swimlane;fontStyle=1;align=center;verticalAlign=top;childLayout=stackLayout;horizontal=1;startSize=26;horizontalStack=0;resizeParent=1;resizeParentMax=0;resizeLast=0;collapsible=1;marginBottom=0;whiteSpace=wrap;html=1;" parent="1" vertex="1">
          <mxGeometry x="12.5" y="-193" width="160" height="60" as="geometry" />
        </mxCell>
        <mxCell id="rQqHYLFViaXi6pjhUfuh-1" value="var position: Vector2D" style="text;strokeColor=none;fillColor=none;align=left;verticalAlign=top;spacingLeft=4;spacingRight=4;overflow=hidden;rotatable=0;points=[[0,0.5],[1,0.5]];portConstraint=eastwest;whiteSpace=wrap;html=1;" vertex="1" parent="kSL2CXLgvnLuKP6OzrhX-75">
          <mxGeometry y="26" width="160" height="26" as="geometry" />
        </mxCell>
        <mxCell id="kSL2CXLgvnLuKP6OzrhX-76" value="" style="line;strokeWidth=1;fillColor=none;align=left;verticalAlign=middle;spacingTop=-1;spacingLeft=3;spacingRight=3;rotatable=0;labelPosition=right;points=[];portConstraint=eastwest;strokeColor=inherit;" parent="kSL2CXLgvnLuKP6OzrhX-75" vertex="1">
          <mxGeometry y="52" width="160" height="8" as="geometry" />
        </mxCell>
        <mxCell id="kSL2CXLgvnLuKP6OzrhX-77" value="Vector2D" style="swimlane;fontStyle=1;align=center;verticalAlign=top;childLayout=stackLayout;horizontal=1;startSize=26;horizontalStack=0;resizeParent=1;resizeParentMax=0;resizeLast=0;collapsible=1;marginBottom=0;whiteSpace=wrap;html=1;" parent="1" vertex="1">
          <mxGeometry x="205" y="-442" width="180" height="140" as="geometry" />
        </mxCell>
        <mxCell id="kSL2CXLgvnLuKP6OzrhX-78" value="&lt;div&gt;+ x: Int&lt;/div&gt;&lt;div&gt;+ y: Int&lt;/div&gt;" style="text;strokeColor=none;fillColor=none;align=left;verticalAlign=top;spacingLeft=4;spacingRight=4;overflow=hidden;rotatable=0;points=[[0,0.5],[1,0.5]];portConstraint=eastwest;whiteSpace=wrap;html=1;" parent="kSL2CXLgvnLuKP6OzrhX-77" vertex="1">
          <mxGeometry y="26" width="180" height="34" as="geometry" />
        </mxCell>
        <mxCell id="kSL2CXLgvnLuKP6OzrhX-79" value="" style="line;strokeWidth=1;fillColor=none;align=left;verticalAlign=middle;spacingTop=-1;spacingLeft=3;spacingRight=3;rotatable=0;labelPosition=right;points=[];portConstraint=eastwest;strokeColor=inherit;" parent="kSL2CXLgvnLuKP6OzrhX-77" vertex="1">
          <mxGeometry y="60" width="180" height="8" as="geometry" />
        </mxCell>
        <mxCell id="kSL2CXLgvnLuKP6OzrhX-80" value="&lt;div&gt;+ keepSignOnly(): Vector2D&lt;/div&gt;&lt;div&gt;+ normalize()&lt;/div&gt;&lt;div&gt;+ rotate(angleInDegrees: Int)&lt;/div&gt;&lt;div&gt;+ maxOf(): Int&lt;/div&gt;" style="text;strokeColor=none;fillColor=none;align=left;verticalAlign=top;spacingLeft=4;spacingRight=4;overflow=hidden;rotatable=0;points=[[0,0.5],[1,0.5]];portConstraint=eastwest;whiteSpace=wrap;html=1;" parent="kSL2CXLgvnLuKP6OzrhX-77" vertex="1">
          <mxGeometry y="68" width="180" height="72" as="geometry" />
        </mxCell>
        <mxCell id="kSL2CXLgvnLuKP6OzrhX-81" value="" style="endArrow=open;endFill=1;endSize=12;html=1;rounded=0;" parent="1" source="kSL2CXLgvnLuKP6OzrhX-1" target="kSL2CXLgvnLuKP6OzrhX-77" edge="1">
          <mxGeometry width="160" relative="1" as="geometry">
            <mxPoint x="62.5" y="-480" as="sourcePoint" />
            <mxPoint x="222.5" y="-480" as="targetPoint" />
          </mxGeometry>
        </mxCell>
        <mxCell id="kSL2CXLgvnLuKP6OzrhX-82" value="" style="endArrow=open;endFill=1;endSize=12;html=1;rounded=0;" parent="1" source="kSL2CXLgvnLuKP6OzrhX-14" target="kSL2CXLgvnLuKP6OzrhX-77" edge="1">
          <mxGeometry width="160" relative="1" as="geometry">
            <mxPoint x="-282.5" y="-452.8579603687304" as="sourcePoint" />
            <mxPoint x="178.57999999999993" y="-479.9999999999998" as="targetPoint" />
            <Array as="points">
              <mxPoint x="102.5" y="-264" />
              <mxPoint x="292.5" y="-264" />
            </Array>
          </mxGeometry>
        </mxCell>
        <mxCell id="kSL2CXLgvnLuKP6OzrhX-83" value="«interface»&lt;i&gt; MovementPattern&lt;/i&gt;" style="swimlane;fontStyle=1;align=center;verticalAlign=top;childLayout=stackLayout;horizontal=1;startSize=26;horizontalStack=0;resizeParent=1;resizeParentMax=0;resizeLast=0;collapsible=1;marginBottom=0;whiteSpace=wrap;html=1;" parent="1" vertex="1">
          <mxGeometry x="572.5" y="306" width="200" height="60" as="geometry" />
        </mxCell>
        <mxCell id="kSL2CXLgvnLuKP6OzrhX-84" value="" style="line;strokeWidth=1;fillColor=none;align=left;verticalAlign=middle;spacingTop=-1;spacingLeft=3;spacingRight=3;rotatable=0;labelPosition=right;points=[];portConstraint=eastwest;strokeColor=inherit;" parent="kSL2CXLgvnLuKP6OzrhX-83" vertex="1">
          <mxGeometry y="26" width="200" height="8" as="geometry" />
        </mxCell>
        <mxCell id="kSL2CXLgvnLuKP6OzrhX-85" value="+ &lt;i&gt;move()&lt;/i&gt;" style="text;strokeColor=none;fillColor=none;align=left;verticalAlign=top;spacingLeft=4;spacingRight=4;overflow=hidden;rotatable=0;points=[[0,0.5],[1,0.5]];portConstraint=eastwest;whiteSpace=wrap;html=1;" parent="kSL2CXLgvnLuKP6OzrhX-83" vertex="1">
          <mxGeometry y="34" width="200" height="26" as="geometry" />
        </mxCell>
        <mxCell id="kSL2CXLgvnLuKP6OzrhX-86" value="&lt;i&gt;RandomMovementPattern&lt;/i&gt;" style="swimlane;fontStyle=1;align=center;verticalAlign=top;childLayout=stackLayout;horizontal=1;startSize=26;horizontalStack=0;resizeParent=1;resizeParentMax=0;resizeLast=0;collapsible=1;marginBottom=0;whiteSpace=wrap;html=1;" parent="1" vertex="1">
          <mxGeometry x="692.5" y="393" width="180" height="60" as="geometry" />
        </mxCell>
        <mxCell id="kSL2CXLgvnLuKP6OzrhX-87" value="" style="line;strokeWidth=1;fillColor=none;align=left;verticalAlign=middle;spacingTop=-1;spacingLeft=3;spacingRight=3;rotatable=0;labelPosition=right;points=[];portConstraint=eastwest;strokeColor=inherit;" parent="kSL2CXLgvnLuKP6OzrhX-86" vertex="1">
          <mxGeometry y="26" width="180" height="8" as="geometry" />
        </mxCell>
        <mxCell id="kSL2CXLgvnLuKP6OzrhX-88" value="+ move()" style="text;strokeColor=none;fillColor=none;align=left;verticalAlign=top;spacingLeft=4;spacingRight=4;overflow=hidden;rotatable=0;points=[[0,0.5],[1,0.5]];portConstraint=eastwest;whiteSpace=wrap;html=1;" parent="kSL2CXLgvnLuKP6OzrhX-86" vertex="1">
          <mxGeometry y="34" width="180" height="26" as="geometry" />
        </mxCell>
        <mxCell id="kSL2CXLgvnLuKP6OzrhX-89" value="&lt;i&gt;FollowPlayerPattern&lt;/i&gt;" style="swimlane;fontStyle=1;align=center;verticalAlign=top;childLayout=stackLayout;horizontal=1;startSize=26;horizontalStack=0;resizeParent=1;resizeParentMax=0;resizeLast=0;collapsible=1;marginBottom=0;whiteSpace=wrap;html=1;" parent="1" vertex="1">
          <mxGeometry x="460" y="393" width="180" height="60" as="geometry" />
        </mxCell>
        <mxCell id="kSL2CXLgvnLuKP6OzrhX-90" value="" style="line;strokeWidth=1;fillColor=none;align=left;verticalAlign=middle;spacingTop=-1;spacingLeft=3;spacingRight=3;rotatable=0;labelPosition=right;points=[];portConstraint=eastwest;strokeColor=inherit;" parent="kSL2CXLgvnLuKP6OzrhX-89" vertex="1">
          <mxGeometry y="26" width="180" height="8" as="geometry" />
        </mxCell>
        <mxCell id="kSL2CXLgvnLuKP6OzrhX-91" value="+ move()" style="text;strokeColor=none;fillColor=none;align=left;verticalAlign=top;spacingLeft=4;spacingRight=4;overflow=hidden;rotatable=0;points=[[0,0.5],[1,0.5]];portConstraint=eastwest;whiteSpace=wrap;html=1;" parent="kSL2CXLgvnLuKP6OzrhX-89" vertex="1">
          <mxGeometry y="34" width="180" height="26" as="geometry" />
        </mxCell>
        <mxCell id="kSL2CXLgvnLuKP6OzrhX-96" value="" style="endArrow=block;dashed=1;endFill=0;endSize=12;html=1;rounded=0;" parent="1" source="kSL2CXLgvnLuKP6OzrhX-89" target="kSL2CXLgvnLuKP6OzrhX-83" edge="1">
          <mxGeometry width="160" relative="1" as="geometry">
            <mxPoint x="312.5" y="196" as="sourcePoint" />
            <mxPoint x="472.5" y="196" as="targetPoint" />
          </mxGeometry>
        </mxCell>
        <mxCell id="kSL2CXLgvnLuKP6OzrhX-97" value="" style="endArrow=block;dashed=1;endFill=0;endSize=12;html=1;rounded=0;" parent="1" source="kSL2CXLgvnLuKP6OzrhX-86" target="kSL2CXLgvnLuKP6OzrhX-83" edge="1">
          <mxGeometry width="160" relative="1" as="geometry">
            <mxPoint x="312.5" y="196" as="sourcePoint" />
            <mxPoint x="472.5" y="196" as="targetPoint" />
          </mxGeometry>
        </mxCell>
        <mxCell id="kSL2CXLgvnLuKP6OzrhX-98" value="" style="endArrow=open;endFill=1;endSize=12;html=1;rounded=0;" parent="1" source="kSL2CXLgvnLuKP6OzrhX-32" target="kSL2CXLgvnLuKP6OzrhX-83" edge="1">
          <mxGeometry width="160" relative="1" as="geometry">
            <mxPoint x="442.5" y="120" as="sourcePoint" />
            <mxPoint x="492.5" y="10" as="targetPoint" />
          </mxGeometry>
        </mxCell>
        <mxCell id="kSL2CXLgvnLuKP6OzrhX-99" value="Strategy Pattern Implementation" style="text;html=1;align=center;verticalAlign=middle;whiteSpace=wrap;rounded=0;" parent="1" vertex="1">
          <mxGeometry x="572.5" y="264" width="200" height="30" as="geometry" />
        </mxCell>
        <mxCell id="kSL2CXLgvnLuKP6OzrhX-106" value="&lt;i&gt;GameEvent&lt;/i&gt;" style="swimlane;fontStyle=1;align=center;verticalAlign=top;childLayout=stackLayout;horizontal=1;startSize=26;horizontalStack=0;resizeParent=1;resizeParentMax=0;resizeLast=0;collapsible=1;marginBottom=0;whiteSpace=wrap;html=1;" parent="1" vertex="1">
          <mxGeometry x="-472" y="-717" width="160" height="34" as="geometry" />
        </mxCell>
        <mxCell id="kSL2CXLgvnLuKP6OzrhX-107" value="" style="line;strokeWidth=1;fillColor=none;align=left;verticalAlign=middle;spacingTop=-1;spacingLeft=3;spacingRight=3;rotatable=0;labelPosition=right;points=[];portConstraint=eastwest;strokeColor=inherit;" parent="kSL2CXLgvnLuKP6OzrhX-106" vertex="1">
          <mxGeometry y="26" width="160" height="8" as="geometry" />
        </mxCell>
        <mxCell id="kSL2CXLgvnLuKP6OzrhX-109" value="" style="endArrow=block;dashed=1;endFill=0;endSize=12;html=1;rounded=0;entryX=1;entryY=0.5;entryDx=0;entryDy=0;exitX=0;exitY=0.25;exitDx=0;exitDy=0;" parent="1" source="kSL2CXLgvnLuKP6OzrhX-53" target="kSL2CXLgvnLuKP6OzrhX-210" edge="1">
          <mxGeometry width="160" relative="1" as="geometry">
            <mxPoint x="-909" y="-299" as="sourcePoint" />
            <mxPoint x="-817.5" y="-670" as="targetPoint" />
            <Array as="points">
              <mxPoint x="-1502" y="-321" />
              <mxPoint x="-1504" y="-118" />
            </Array>
          </mxGeometry>
        </mxCell>
        <mxCell id="kSL2CXLgvnLuKP6OzrhX-120" value="object JsonParserFactory" style="swimlane;fontStyle=1;align=center;verticalAlign=top;childLayout=stackLayout;horizontal=1;startSize=26;horizontalStack=0;resizeParent=1;resizeParentMax=0;resizeLast=0;collapsible=1;marginBottom=0;whiteSpace=wrap;html=1;" parent="1" vertex="1">
          <mxGeometry x="-827.5" y="37" width="220" height="60" as="geometry" />
        </mxCell>
        <mxCell id="kSL2CXLgvnLuKP6OzrhX-121" value="" style="line;strokeWidth=1;fillColor=none;align=left;verticalAlign=middle;spacingTop=-1;spacingLeft=3;spacingRight=3;rotatable=0;labelPosition=right;points=[];portConstraint=eastwest;strokeColor=inherit;" parent="kSL2CXLgvnLuKP6OzrhX-120" vertex="1">
          <mxGeometry y="26" width="220" height="8" as="geometry" />
        </mxCell>
        <mxCell id="kSL2CXLgvnLuKP6OzrhX-122" value="+ getParser(TileType): JsonParser" style="text;strokeColor=none;fillColor=none;align=left;verticalAlign=top;spacingLeft=4;spacingRight=4;overflow=hidden;rotatable=0;points=[[0,0.5],[1,0.5]];portConstraint=eastwest;whiteSpace=wrap;html=1;" parent="kSL2CXLgvnLuKP6OzrhX-120" vertex="1">
          <mxGeometry y="34" width="220" height="26" as="geometry" />
        </mxCell>
        <mxCell id="kSL2CXLgvnLuKP6OzrhX-123" value="&lt;i&gt;JsonParser&lt;/i&gt;" style="swimlane;fontStyle=1;align=center;verticalAlign=top;childLayout=stackLayout;horizontal=1;startSize=26;horizontalStack=0;resizeParent=1;resizeParentMax=0;resizeLast=0;collapsible=1;marginBottom=0;whiteSpace=wrap;html=1;" parent="1" vertex="1">
          <mxGeometry x="-827.5" y="-193" width="220" height="60" as="geometry" />
        </mxCell>
        <mxCell id="kSL2CXLgvnLuKP6OzrhX-124" value="" style="line;strokeWidth=1;fillColor=none;align=left;verticalAlign=middle;spacingTop=-1;spacingLeft=3;spacingRight=3;rotatable=0;labelPosition=right;points=[];portConstraint=eastwest;strokeColor=inherit;" parent="kSL2CXLgvnLuKP6OzrhX-123" vertex="1">
          <mxGeometry y="26" width="220" height="8" as="geometry" />
        </mxCell>
        <mxCell id="kSL2CXLgvnLuKP6OzrhX-125" value="+ parse(MapCase): Drawable" style="text;strokeColor=none;fillColor=none;align=left;verticalAlign=top;spacingLeft=4;spacingRight=4;overflow=hidden;rotatable=0;points=[[0,0.5],[1,0.5]];portConstraint=eastwest;whiteSpace=wrap;html=1;" parent="kSL2CXLgvnLuKP6OzrhX-123" vertex="1">
          <mxGeometry y="34" width="220" height="26" as="geometry" />
        </mxCell>
        <mxCell id="kSL2CXLgvnLuKP6OzrhX-126" value="" style="endArrow=open;endFill=1;endSize=12;html=1;rounded=0;" parent="1" source="kSL2CXLgvnLuKP6OzrhX-123" target="kSL2CXLgvnLuKP6OzrhX-75" edge="1">
          <mxGeometry width="160" relative="1" as="geometry">
            <mxPoint x="-432.5" y="-146" as="sourcePoint" />
            <mxPoint x="-272.5" y="-146" as="targetPoint" />
          </mxGeometry>
        </mxCell>
        <mxCell id="kSL2CXLgvnLuKP6OzrhX-127" value="" style="endArrow=open;endFill=1;endSize=12;html=1;rounded=0;" parent="1" source="kSL2CXLgvnLuKP6OzrhX-120" target="kSL2CXLgvnLuKP6OzrhX-123" edge="1">
          <mxGeometry width="160" relative="1" as="geometry">
            <mxPoint x="-597.5" y="-46" as="sourcePoint" />
            <mxPoint x="-437.5" y="-46" as="targetPoint" />
          </mxGeometry>
        </mxCell>
        <mxCell id="kSL2CXLgvnLuKP6OzrhX-128" value="enum class TileType" style="swimlane;fontStyle=1;align=center;verticalAlign=top;childLayout=stackLayout;horizontal=1;startSize=26;horizontalStack=0;resizeParent=1;resizeParentMax=0;resizeLast=0;collapsible=1;marginBottom=0;whiteSpace=wrap;html=1;" parent="1" vertex="1">
          <mxGeometry x="-827.5" y="190" width="220" height="60" as="geometry" />
        </mxCell>
        <mxCell id="kSL2CXLgvnLuKP6OzrhX-129" value="WALL, DOOR, PLAYER, BOSS, MOB" style="text;strokeColor=none;fillColor=none;align=left;verticalAlign=top;spacingLeft=4;spacingRight=4;overflow=hidden;rotatable=0;points=[[0,0.5],[1,0.5]];portConstraint=eastwest;whiteSpace=wrap;html=1;" parent="kSL2CXLgvnLuKP6OzrhX-128" vertex="1">
          <mxGeometry y="26" width="220" height="26" as="geometry" />
        </mxCell>
        <mxCell id="kSL2CXLgvnLuKP6OzrhX-130" value="" style="line;strokeWidth=1;fillColor=none;align=left;verticalAlign=middle;spacingTop=-1;spacingLeft=3;spacingRight=3;rotatable=0;labelPosition=right;points=[];portConstraint=eastwest;strokeColor=inherit;" parent="kSL2CXLgvnLuKP6OzrhX-128" vertex="1">
          <mxGeometry y="52" width="220" height="8" as="geometry" />
        </mxCell>
        <mxCell id="kSL2CXLgvnLuKP6OzrhX-131" value="" style="endArrow=open;endFill=1;endSize=12;html=1;rounded=0;" parent="1" source="kSL2CXLgvnLuKP6OzrhX-120" target="kSL2CXLgvnLuKP6OzrhX-128" edge="1">
          <mxGeometry width="160" relative="1" as="geometry">
            <mxPoint x="-437.5" y="164.5" as="sourcePoint" />
            <mxPoint x="-373.5" y="21.5" as="targetPoint" />
          </mxGeometry>
        </mxCell>
        <mxCell id="kSL2CXLgvnLuKP6OzrhX-132" value="data class MapCase" style="swimlane;fontStyle=1;align=center;verticalAlign=top;childLayout=stackLayout;horizontal=1;startSize=26;horizontalStack=0;resizeParent=1;resizeParentMax=0;resizeLast=0;collapsible=1;marginBottom=0;whiteSpace=wrap;html=1;" parent="1" vertex="1">
          <mxGeometry x="-397.5" y="46" width="220" height="98" as="geometry" />
        </mxCell>
        <mxCell id="kSL2CXLgvnLuKP6OzrhX-133" value="&lt;div&gt;+ x : Int&lt;/div&gt;&lt;div&gt;+ y : Int&lt;/div&gt;&lt;div&gt;+ type: TileType&lt;/div&gt;&lt;div&gt;+ details: JsonElement&lt;/div&gt;" style="text;strokeColor=none;fillColor=none;align=left;verticalAlign=top;spacingLeft=4;spacingRight=4;overflow=hidden;rotatable=0;points=[[0,0.5],[1,0.5]];portConstraint=eastwest;whiteSpace=wrap;html=1;" parent="kSL2CXLgvnLuKP6OzrhX-132" vertex="1">
          <mxGeometry y="26" width="220" height="64" as="geometry" />
        </mxCell>
        <mxCell id="kSL2CXLgvnLuKP6OzrhX-134" value="" style="line;strokeWidth=1;fillColor=none;align=left;verticalAlign=middle;spacingTop=-1;spacingLeft=3;spacingRight=3;rotatable=0;labelPosition=right;points=[];portConstraint=eastwest;strokeColor=inherit;" parent="kSL2CXLgvnLuKP6OzrhX-132" vertex="1">
          <mxGeometry y="90" width="220" height="8" as="geometry" />
        </mxCell>
        <mxCell id="kSL2CXLgvnLuKP6OzrhX-135" value="data class MapData" style="swimlane;fontStyle=1;align=center;verticalAlign=top;childLayout=stackLayout;horizontal=1;startSize=26;horizontalStack=0;resizeParent=1;resizeParentMax=0;resizeLast=0;collapsible=1;marginBottom=0;whiteSpace=wrap;html=1;" parent="1" vertex="1">
          <mxGeometry x="-397.5" y="-133" width="220" height="88" as="geometry" />
        </mxCell>
        <mxCell id="kSL2CXLgvnLuKP6OzrhX-136" value="&lt;div&gt;+ width : Int&lt;/div&gt;&lt;div&gt;+ height : Int&lt;/div&gt;&lt;div&gt;+ cases: List&amp;lt;MapCase&amp;gt;&lt;/div&gt;" style="text;strokeColor=none;fillColor=none;align=left;verticalAlign=top;spacingLeft=4;spacingRight=4;overflow=hidden;rotatable=0;points=[[0,0.5],[1,0.5]];portConstraint=eastwest;whiteSpace=wrap;html=1;" parent="kSL2CXLgvnLuKP6OzrhX-135" vertex="1">
          <mxGeometry y="26" width="220" height="54" as="geometry" />
        </mxCell>
        <mxCell id="kSL2CXLgvnLuKP6OzrhX-137" value="" style="line;strokeWidth=1;fillColor=none;align=left;verticalAlign=middle;spacingTop=-1;spacingLeft=3;spacingRight=3;rotatable=0;labelPosition=right;points=[];portConstraint=eastwest;strokeColor=inherit;" parent="kSL2CXLgvnLuKP6OzrhX-135" vertex="1">
          <mxGeometry y="80" width="220" height="8" as="geometry" />
        </mxCell>
        <mxCell id="kSL2CXLgvnLuKP6OzrhX-138" value="" style="endArrow=diamondThin;endFill=1;endSize=24;html=1;rounded=0;" parent="1" source="kSL2CXLgvnLuKP6OzrhX-14" target="kSL2CXLgvnLuKP6OzrhX-135" edge="1">
          <mxGeometry width="160" relative="1" as="geometry">
            <mxPoint x="-187.5" y="-120" as="sourcePoint" />
            <mxPoint x="-27.5" y="-120" as="targetPoint" />
          </mxGeometry>
        </mxCell>
        <mxCell id="kSL2CXLgvnLuKP6OzrhX-139" value="" style="endArrow=diamondThin;endFill=1;endSize=24;html=1;rounded=0;" parent="1" source="kSL2CXLgvnLuKP6OzrhX-135" target="kSL2CXLgvnLuKP6OzrhX-132" edge="1">
          <mxGeometry width="160" relative="1" as="geometry">
            <mxPoint x="-187.5" y="-120" as="sourcePoint" />
            <mxPoint x="-27.5" y="-120" as="targetPoint" />
          </mxGeometry>
        </mxCell>
        <mxCell id="kSL2CXLgvnLuKP6OzrhX-140" value="" style="endArrow=open;endFill=1;endSize=12;html=1;rounded=0;" parent="1" source="kSL2CXLgvnLuKP6OzrhX-14" target="kSL2CXLgvnLuKP6OzrhX-120" edge="1">
          <mxGeometry width="160" relative="1" as="geometry">
            <mxPoint x="-557.5" y="320" as="sourcePoint" />
            <mxPoint x="-397.5" y="320" as="targetPoint" />
          </mxGeometry>
        </mxCell>
        <mxCell id="kSL2CXLgvnLuKP6OzrhX-145" style="edgeStyle=orthogonalEdgeStyle;rounded=0;orthogonalLoop=1;jettySize=auto;html=1;exitX=1;exitY=0.5;exitDx=0;exitDy=0;" parent="1" source="kSL2CXLgvnLuKP6OzrhX-146" target="kSL2CXLgvnLuKP6OzrhX-123" edge="1">
          <mxGeometry relative="1" as="geometry" />
        </mxCell>
        <mxCell id="kSL2CXLgvnLuKP6OzrhX-146" value="PlayerJsonParser" style="swimlane;fontStyle=1;align=center;verticalAlign=top;childLayout=stackLayout;horizontal=1;startSize=26;horizontalStack=0;resizeParent=1;resizeParentMax=0;resizeLast=0;collapsible=1;marginBottom=0;whiteSpace=wrap;html=1;" parent="1" vertex="1">
          <mxGeometry x="-1217.5" y="-210" width="220" height="60" as="geometry" />
        </mxCell>
        <mxCell id="kSL2CXLgvnLuKP6OzrhX-147" value="" style="line;strokeWidth=1;fillColor=none;align=left;verticalAlign=middle;spacingTop=-1;spacingLeft=3;spacingRight=3;rotatable=0;labelPosition=right;points=[];portConstraint=eastwest;strokeColor=inherit;" parent="kSL2CXLgvnLuKP6OzrhX-146" vertex="1">
          <mxGeometry y="26" width="220" height="8" as="geometry" />
        </mxCell>
        <mxCell id="kSL2CXLgvnLuKP6OzrhX-148" value="+ parse(MapCase): Drawable" style="text;strokeColor=none;fillColor=none;align=left;verticalAlign=top;spacingLeft=4;spacingRight=4;overflow=hidden;rotatable=0;points=[[0,0.5],[1,0.5]];portConstraint=eastwest;whiteSpace=wrap;html=1;" parent="kSL2CXLgvnLuKP6OzrhX-146" vertex="1">
          <mxGeometry y="34" width="220" height="26" as="geometry" />
        </mxCell>
        <mxCell id="kSL2CXLgvnLuKP6OzrhX-149" style="edgeStyle=orthogonalEdgeStyle;rounded=0;orthogonalLoop=1;jettySize=auto;html=1;exitX=1;exitY=0.5;exitDx=0;exitDy=0;entryX=0;entryY=0.25;entryDx=0;entryDy=0;" parent="1" source="kSL2CXLgvnLuKP6OzrhX-150" target="kSL2CXLgvnLuKP6OzrhX-123" edge="1">
          <mxGeometry relative="1" as="geometry" />
        </mxCell>
        <mxCell id="kSL2CXLgvnLuKP6OzrhX-150" value="BossJsonParser" style="swimlane;fontStyle=1;align=center;verticalAlign=top;childLayout=stackLayout;horizontal=1;startSize=26;horizontalStack=0;resizeParent=1;resizeParentMax=0;resizeLast=0;collapsible=1;marginBottom=0;whiteSpace=wrap;html=1;" parent="1" vertex="1">
          <mxGeometry x="-1217.5" y="-137" width="220" height="60" as="geometry" />
        </mxCell>
        <mxCell id="kSL2CXLgvnLuKP6OzrhX-151" value="" style="line;strokeWidth=1;fillColor=none;align=left;verticalAlign=middle;spacingTop=-1;spacingLeft=3;spacingRight=3;rotatable=0;labelPosition=right;points=[];portConstraint=eastwest;strokeColor=inherit;" parent="kSL2CXLgvnLuKP6OzrhX-150" vertex="1">
          <mxGeometry y="26" width="220" height="8" as="geometry" />
        </mxCell>
        <mxCell id="kSL2CXLgvnLuKP6OzrhX-152" value="+ parse(MapCase): Drawable" style="text;strokeColor=none;fillColor=none;align=left;verticalAlign=top;spacingLeft=4;spacingRight=4;overflow=hidden;rotatable=0;points=[[0,0.5],[1,0.5]];portConstraint=eastwest;whiteSpace=wrap;html=1;" parent="kSL2CXLgvnLuKP6OzrhX-150" vertex="1">
          <mxGeometry y="34" width="220" height="26" as="geometry" />
        </mxCell>
        <mxCell id="kSL2CXLgvnLuKP6OzrhX-153" style="edgeStyle=orthogonalEdgeStyle;rounded=0;orthogonalLoop=1;jettySize=auto;html=1;exitX=1;exitY=0.5;exitDx=0;exitDy=0;entryX=0;entryY=0.5;entryDx=0;entryDy=0;" parent="1" source="kSL2CXLgvnLuKP6OzrhX-154" target="kSL2CXLgvnLuKP6OzrhX-125" edge="1">
          <mxGeometry relative="1" as="geometry" />
        </mxCell>
        <mxCell id="kSL2CXLgvnLuKP6OzrhX-154" value="MobJsonParser" style="swimlane;fontStyle=1;align=center;verticalAlign=top;childLayout=stackLayout;horizontal=1;startSize=26;horizontalStack=0;resizeParent=1;resizeParentMax=0;resizeLast=0;collapsible=1;marginBottom=0;whiteSpace=wrap;html=1;" parent="1" vertex="1">
          <mxGeometry x="-1217.5" y="-61" width="220" height="60" as="geometry" />
        </mxCell>
        <mxCell id="kSL2CXLgvnLuKP6OzrhX-155" value="" style="line;strokeWidth=1;fillColor=none;align=left;verticalAlign=middle;spacingTop=-1;spacingLeft=3;spacingRight=3;rotatable=0;labelPosition=right;points=[];portConstraint=eastwest;strokeColor=inherit;" parent="kSL2CXLgvnLuKP6OzrhX-154" vertex="1">
          <mxGeometry y="26" width="220" height="8" as="geometry" />
        </mxCell>
        <mxCell id="kSL2CXLgvnLuKP6OzrhX-156" value="+ parse(MapCase): Drawable" style="text;strokeColor=none;fillColor=none;align=left;verticalAlign=top;spacingLeft=4;spacingRight=4;overflow=hidden;rotatable=0;points=[[0,0.5],[1,0.5]];portConstraint=eastwest;whiteSpace=wrap;html=1;" parent="kSL2CXLgvnLuKP6OzrhX-154" vertex="1">
          <mxGeometry y="34" width="220" height="26" as="geometry" />
        </mxCell>
        <mxCell id="kSL2CXLgvnLuKP6OzrhX-157" value="WallJsonParser" style="swimlane;fontStyle=1;align=center;verticalAlign=top;childLayout=stackLayout;horizontal=1;startSize=26;horizontalStack=0;resizeParent=1;resizeParentMax=0;resizeLast=0;collapsible=1;marginBottom=0;whiteSpace=wrap;html=1;" parent="1" vertex="1">
          <mxGeometry x="-1217.5" y="9" width="220" height="60" as="geometry" />
        </mxCell>
        <mxCell id="kSL2CXLgvnLuKP6OzrhX-158" value="" style="line;strokeWidth=1;fillColor=none;align=left;verticalAlign=middle;spacingTop=-1;spacingLeft=3;spacingRight=3;rotatable=0;labelPosition=right;points=[];portConstraint=eastwest;strokeColor=inherit;" parent="kSL2CXLgvnLuKP6OzrhX-157" vertex="1">
          <mxGeometry y="26" width="220" height="8" as="geometry" />
        </mxCell>
        <mxCell id="kSL2CXLgvnLuKP6OzrhX-159" value="+ parse(MapCase): Drawable" style="text;strokeColor=none;fillColor=none;align=left;verticalAlign=top;spacingLeft=4;spacingRight=4;overflow=hidden;rotatable=0;points=[[0,0.5],[1,0.5]];portConstraint=eastwest;whiteSpace=wrap;html=1;" parent="kSL2CXLgvnLuKP6OzrhX-157" vertex="1">
          <mxGeometry y="34" width="220" height="26" as="geometry" />
        </mxCell>
        <mxCell id="kSL2CXLgvnLuKP6OzrhX-160" style="edgeStyle=orthogonalEdgeStyle;rounded=0;orthogonalLoop=1;jettySize=auto;html=1;exitX=1;exitY=0.5;exitDx=0;exitDy=0;entryX=0.108;entryY=1.088;entryDx=0;entryDy=0;entryPerimeter=0;" parent="1" source="kSL2CXLgvnLuKP6OzrhX-157" target="kSL2CXLgvnLuKP6OzrhX-125" edge="1">
          <mxGeometry relative="1" as="geometry">
            <Array as="points">
              <mxPoint x="-952.5" y="67" />
              <mxPoint x="-952.5" />
              <mxPoint x="-803.5" />
            </Array>
          </mxGeometry>
        </mxCell>
        <mxCell id="kSL2CXLgvnLuKP6OzrhX-161" value="DoorJsonParser" style="swimlane;fontStyle=1;align=center;verticalAlign=top;childLayout=stackLayout;horizontal=1;startSize=26;horizontalStack=0;resizeParent=1;resizeParentMax=0;resizeLast=0;collapsible=1;marginBottom=0;whiteSpace=wrap;html=1;" parent="1" vertex="1">
          <mxGeometry x="-1217.5" y="80" width="220" height="60" as="geometry" />
        </mxCell>
        <mxCell id="kSL2CXLgvnLuKP6OzrhX-162" value="" style="line;strokeWidth=1;fillColor=none;align=left;verticalAlign=middle;spacingTop=-1;spacingLeft=3;spacingRight=3;rotatable=0;labelPosition=right;points=[];portConstraint=eastwest;strokeColor=inherit;" parent="kSL2CXLgvnLuKP6OzrhX-161" vertex="1">
          <mxGeometry y="26" width="220" height="8" as="geometry" />
        </mxCell>
        <mxCell id="kSL2CXLgvnLuKP6OzrhX-163" value="+ parse(MapCase): Drawable" style="text;strokeColor=none;fillColor=none;align=left;verticalAlign=top;spacingLeft=4;spacingRight=4;overflow=hidden;rotatable=0;points=[[0,0.5],[1,0.5]];portConstraint=eastwest;whiteSpace=wrap;html=1;" parent="kSL2CXLgvnLuKP6OzrhX-161" vertex="1">
          <mxGeometry y="34" width="220" height="26" as="geometry" />
        </mxCell>
        <mxCell id="kSL2CXLgvnLuKP6OzrhX-164" style="edgeStyle=orthogonalEdgeStyle;rounded=0;orthogonalLoop=1;jettySize=auto;html=1;exitX=1;exitY=0.5;exitDx=0;exitDy=0;entryX=0.03;entryY=0.978;entryDx=0;entryDy=0;entryPerimeter=0;" parent="1" source="kSL2CXLgvnLuKP6OzrhX-161" target="kSL2CXLgvnLuKP6OzrhX-125" edge="1">
          <mxGeometry relative="1" as="geometry">
            <Array as="points">
              <mxPoint x="-927.5" y="127" />
              <mxPoint x="-927.5" y="-134" />
            </Array>
          </mxGeometry>
        </mxCell>
        <mxCell id="kSL2CXLgvnLuKP6OzrhX-165" value="PlayerJsonStructure" style="swimlane;fontStyle=1;align=center;verticalAlign=top;childLayout=stackLayout;horizontal=1;startSize=26;horizontalStack=0;resizeParent=1;resizeParentMax=0;resizeLast=0;collapsible=1;marginBottom=0;whiteSpace=wrap;html=1;" parent="1" vertex="1">
          <mxGeometry x="-1497.5" y="-210" width="210" height="60" as="geometry" />
        </mxCell>
        <mxCell id="kSL2CXLgvnLuKP6OzrhX-166" value="+ weapons: List&amp;lt;WeaponStructure&amp;gt;" style="text;strokeColor=none;fillColor=none;align=left;verticalAlign=top;spacingLeft=4;spacingRight=4;overflow=hidden;rotatable=0;points=[[0,0.5],[1,0.5]];portConstraint=eastwest;whiteSpace=wrap;html=1;" parent="kSL2CXLgvnLuKP6OzrhX-165" vertex="1">
          <mxGeometry y="26" width="210" height="26" as="geometry" />
        </mxCell>
        <mxCell id="kSL2CXLgvnLuKP6OzrhX-167" value="" style="line;strokeWidth=1;fillColor=none;align=left;verticalAlign=middle;spacingTop=-1;spacingLeft=3;spacingRight=3;rotatable=0;labelPosition=right;points=[];portConstraint=eastwest;strokeColor=inherit;" parent="kSL2CXLgvnLuKP6OzrhX-165" vertex="1">
          <mxGeometry y="52" width="210" height="8" as="geometry" />
        </mxCell>
        <mxCell id="kSL2CXLgvnLuKP6OzrhX-168" value="MobJsonStructure" style="swimlane;fontStyle=1;align=center;verticalAlign=top;childLayout=stackLayout;horizontal=1;startSize=26;horizontalStack=0;resizeParent=1;resizeParentMax=0;resizeLast=0;collapsible=1;marginBottom=0;whiteSpace=wrap;html=1;" parent="1" vertex="1">
          <mxGeometry x="-1497.5" y="-87" width="220" height="68" as="geometry" />
        </mxCell>
        <mxCell id="kSL2CXLgvnLuKP6OzrhX-169" value="&lt;div&gt;+ movementPattern: String&lt;/div&gt;&lt;div&gt;+ weapons: List&amp;lt;WeaponStructure&amp;gt;&lt;/div&gt;" style="text;strokeColor=none;fillColor=none;align=left;verticalAlign=top;spacingLeft=4;spacingRight=4;overflow=hidden;rotatable=0;points=[[0,0.5],[1,0.5]];portConstraint=eastwest;whiteSpace=wrap;html=1;" parent="kSL2CXLgvnLuKP6OzrhX-168" vertex="1">
          <mxGeometry y="26" width="220" height="34" as="geometry" />
        </mxCell>
        <mxCell id="kSL2CXLgvnLuKP6OzrhX-170" value="" style="line;strokeWidth=1;fillColor=none;align=left;verticalAlign=middle;spacingTop=-1;spacingLeft=3;spacingRight=3;rotatable=0;labelPosition=right;points=[];portConstraint=eastwest;strokeColor=inherit;" parent="kSL2CXLgvnLuKP6OzrhX-168" vertex="1">
          <mxGeometry y="60" width="220" height="8" as="geometry" />
        </mxCell>
        <mxCell id="kSL2CXLgvnLuKP6OzrhX-171" value="" style="endArrow=open;endFill=1;endSize=12;html=1;rounded=0;" parent="1" source="kSL2CXLgvnLuKP6OzrhX-146" target="kSL2CXLgvnLuKP6OzrhX-165" edge="1">
          <mxGeometry width="160" relative="1" as="geometry">
            <mxPoint x="-1177.5" y="-487" as="sourcePoint" />
            <mxPoint x="-1017.5" y="-487" as="targetPoint" />
          </mxGeometry>
        </mxCell>
        <mxCell id="kSL2CXLgvnLuKP6OzrhX-172" value="" style="endArrow=open;endFill=1;endSize=12;html=1;rounded=0;" parent="1" source="kSL2CXLgvnLuKP6OzrhX-150" target="kSL2CXLgvnLuKP6OzrhX-168" edge="1">
          <mxGeometry width="160" relative="1" as="geometry">
            <mxPoint x="-1277.5" y="-118.17999999999995" as="sourcePoint" />
            <mxPoint x="-1347.5" y="-118.17999999999995" as="targetPoint" />
          </mxGeometry>
        </mxCell>
        <mxCell id="kSL2CXLgvnLuKP6OzrhX-173" value="" style="endArrow=open;endFill=1;endSize=12;html=1;rounded=0;" parent="1" source="kSL2CXLgvnLuKP6OzrhX-154" target="kSL2CXLgvnLuKP6OzrhX-168" edge="1">
          <mxGeometry width="160" relative="1" as="geometry">
            <mxPoint x="-1357.5" y="119" as="sourcePoint" />
            <mxPoint x="-1427.5" y="137" as="targetPoint" />
          </mxGeometry>
        </mxCell>
        <mxCell id="kSL2CXLgvnLuKP6OzrhX-174" value="WeaponJsonStructure" style="swimlane;fontStyle=1;align=center;verticalAlign=top;childLayout=stackLayout;horizontal=1;startSize=26;horizontalStack=0;resizeParent=1;resizeParentMax=0;resizeLast=0;collapsible=1;marginBottom=0;whiteSpace=wrap;html=1;" parent="1" vertex="1">
          <mxGeometry x="-1497.5" y="156" width="220" height="88" as="geometry" />
        </mxCell>
        <mxCell id="kSL2CXLgvnLuKP6OzrhX-175" value="&lt;div&gt;+ type: WeaponType&lt;/div&gt;&lt;div&gt;+ name: String&lt;/div&gt;&lt;div&gt;+ damage : Int&lt;/div&gt;" style="text;strokeColor=none;fillColor=none;align=left;verticalAlign=top;spacingLeft=4;spacingRight=4;overflow=hidden;rotatable=0;points=[[0,0.5],[1,0.5]];portConstraint=eastwest;whiteSpace=wrap;html=1;" parent="kSL2CXLgvnLuKP6OzrhX-174" vertex="1">
          <mxGeometry y="26" width="220" height="54" as="geometry" />
        </mxCell>
        <mxCell id="kSL2CXLgvnLuKP6OzrhX-176" value="" style="line;strokeWidth=1;fillColor=none;align=left;verticalAlign=middle;spacingTop=-1;spacingLeft=3;spacingRight=3;rotatable=0;labelPosition=right;points=[];portConstraint=eastwest;strokeColor=inherit;" parent="kSL2CXLgvnLuKP6OzrhX-174" vertex="1">
          <mxGeometry y="80" width="220" height="8" as="geometry" />
        </mxCell>
        <mxCell id="kSL2CXLgvnLuKP6OzrhX-177" value="1" style="endArrow=open;html=1;endSize=12;startArrow=diamondThin;startSize=14;startFill=1;edgeStyle=orthogonalEdgeStyle;align=left;verticalAlign=bottom;rounded=0;" parent="1" source="kSL2CXLgvnLuKP6OzrhX-168" target="kSL2CXLgvnLuKP6OzrhX-174" edge="1">
          <mxGeometry x="-1" y="3" relative="1" as="geometry">
            <mxPoint x="-1517.5" y="230" as="sourcePoint" />
            <mxPoint x="-1357.5" y="230" as="targetPoint" />
          </mxGeometry>
        </mxCell>
        <mxCell id="kSL2CXLgvnLuKP6OzrhX-178" value="enum class WeaponType" style="swimlane;fontStyle=1;align=center;verticalAlign=top;childLayout=stackLayout;horizontal=1;startSize=26;horizontalStack=0;resizeParent=1;resizeParentMax=0;resizeLast=0;collapsible=1;marginBottom=0;whiteSpace=wrap;html=1;" parent="1" vertex="1">
          <mxGeometry x="-1217.5" y="170" width="220" height="60" as="geometry" />
        </mxCell>
        <mxCell id="kSL2CXLgvnLuKP6OzrhX-179" value="GUN, KNIFE" style="text;strokeColor=none;fillColor=none;align=left;verticalAlign=top;spacingLeft=4;spacingRight=4;overflow=hidden;rotatable=0;points=[[0,0.5],[1,0.5]];portConstraint=eastwest;whiteSpace=wrap;html=1;" parent="kSL2CXLgvnLuKP6OzrhX-178" vertex="1">
          <mxGeometry y="26" width="220" height="26" as="geometry" />
        </mxCell>
        <mxCell id="kSL2CXLgvnLuKP6OzrhX-180" value="" style="line;strokeWidth=1;fillColor=none;align=left;verticalAlign=middle;spacingTop=-1;spacingLeft=3;spacingRight=3;rotatable=0;labelPosition=right;points=[];portConstraint=eastwest;strokeColor=inherit;" parent="kSL2CXLgvnLuKP6OzrhX-178" vertex="1">
          <mxGeometry y="52" width="220" height="8" as="geometry" />
        </mxCell>
        <mxCell id="kSL2CXLgvnLuKP6OzrhX-181" value="" style="endArrow=diamondThin;endFill=1;endSize=24;html=1;rounded=0;" parent="1" source="kSL2CXLgvnLuKP6OzrhX-178" target="kSL2CXLgvnLuKP6OzrhX-174" edge="1">
          <mxGeometry width="160" relative="1" as="geometry">
            <mxPoint x="-1247.5" y="370" as="sourcePoint" />
            <mxPoint x="-1087.5" y="370" as="targetPoint" />
          </mxGeometry>
        </mxCell>
        <mxCell id="kSL2CXLgvnLuKP6OzrhX-182" value="MainActivity" style="swimlane;fontStyle=1;align=center;verticalAlign=top;childLayout=stackLayout;horizontal=1;startSize=26;horizontalStack=0;resizeParent=1;resizeParentMax=0;resizeLast=0;collapsible=1;marginBottom=0;whiteSpace=wrap;html=1;" parent="1" vertex="1">
          <mxGeometry x="-1572" y="-897" width="284" height="139" as="geometry" />
        </mxCell>
        <mxCell id="kSL2CXLgvnLuKP6OzrhX-184" value="" style="line;strokeWidth=1;fillColor=none;align=left;verticalAlign=middle;spacingTop=-1;spacingLeft=3;spacingRight=3;rotatable=0;labelPosition=right;points=[];portConstraint=eastwest;strokeColor=inherit;" parent="kSL2CXLgvnLuKP6OzrhX-182" vertex="1">
          <mxGeometry y="26" width="284" height="8" as="geometry" />
        </mxCell>
        <mxCell id="kSL2CXLgvnLuKP6OzrhX-185" value="&lt;div&gt;&amp;nbsp; + onCreate(savedInstanceState: Bundle?): Unit&lt;/div&gt;&lt;div&gt;&amp;nbsp; - showMainMenu(): Unit&lt;/div&gt;&lt;div&gt;&amp;nbsp; - showGame(): Unit&lt;/div&gt;&lt;div&gt;&amp;nbsp; - showCredits(): Unit&lt;/div&gt;&lt;div&gt;&amp;nbsp; + onGameEvent(event: GameEvent): Unit&lt;/div&gt;&lt;div&gt;&amp;nbsp; + refreshInventory(activeItem: Item): Unit&lt;/div&gt;" style="text;strokeColor=none;fillColor=none;align=left;verticalAlign=top;spacingLeft=4;spacingRight=4;overflow=hidden;rotatable=0;points=[[0,0.5],[1,0.5]];portConstraint=eastwest;whiteSpace=wrap;html=1;" parent="kSL2CXLgvnLuKP6OzrhX-182" vertex="1">
          <mxGeometry y="34" width="284" height="105" as="geometry" />
        </mxCell>
        <mxCell id="kSL2CXLgvnLuKP6OzrhX-186" value="GameView" style="swimlane;fontStyle=1;align=center;verticalAlign=top;childLayout=stackLayout;horizontal=1;startSize=26;horizontalStack=0;resizeParent=1;resizeParentMax=0;resizeLast=0;collapsible=1;marginBottom=0;whiteSpace=wrap;html=1;" parent="1" vertex="1">
          <mxGeometry x="-1516" y="-613" width="449" height="171" as="geometry" />
        </mxCell>
        <mxCell id="kSL2CXLgvnLuKP6OzrhX-187" value="&lt;div&gt;&amp;nbsp;- map: Map&lt;/div&gt;&lt;div&gt;&amp;nbsp; - gridDimensions: Vector2D&lt;/div&gt;&lt;div&gt;&amp;nbsp; - tileSize: Int&lt;/div&gt;" style="text;strokeColor=none;fillColor=none;align=left;verticalAlign=top;spacingLeft=4;spacingRight=4;overflow=hidden;rotatable=0;points=[[0,0.5],[1,0.5]];portConstraint=eastwest;whiteSpace=wrap;html=1;" parent="kSL2CXLgvnLuKP6OzrhX-186" vertex="1">
          <mxGeometry y="26" width="449" height="53" as="geometry" />
        </mxCell>
        <mxCell id="kSL2CXLgvnLuKP6OzrhX-188" value="" style="line;strokeWidth=1;fillColor=none;align=left;verticalAlign=middle;spacingTop=-1;spacingLeft=3;spacingRight=3;rotatable=0;labelPosition=right;points=[];portConstraint=eastwest;strokeColor=inherit;" parent="kSL2CXLgvnLuKP6OzrhX-186" vertex="1">
          <mxGeometry y="79" width="449" height="8" as="geometry" />
        </mxCell>
        <mxCell id="kSL2CXLgvnLuKP6OzrhX-189" value="&lt;div&gt;&amp;nbsp; + surfaceCreated(holder: SurfaceHolder): Unit&lt;/div&gt;&lt;div&gt;&amp;nbsp; + surfaceChanged(holder: SurfaceHolder, format: Int, width: Int, height: Int): Unit&lt;/div&gt;&lt;div&gt;&amp;nbsp; + surfaceDestroyed(holder: SurfaceHolder): Unit&lt;/div&gt;&lt;div&gt;&amp;nbsp; + onGameEvent(event: GameEvent): Unit&lt;/div&gt;&lt;div&gt;&amp;nbsp; + render(): Unit&lt;/div&gt;" style="text;strokeColor=none;fillColor=none;align=left;verticalAlign=top;spacingLeft=4;spacingRight=4;overflow=hidden;rotatable=0;points=[[0,0.5],[1,0.5]];portConstraint=eastwest;whiteSpace=wrap;html=1;" parent="kSL2CXLgvnLuKP6OzrhX-186" vertex="1">
          <mxGeometry y="87" width="449" height="84" as="geometry" />
        </mxCell>
        <mxCell id="kSL2CXLgvnLuKP6OzrhX-194" value="GameLoop" style="swimlane;fontStyle=1;align=center;verticalAlign=top;childLayout=stackLayout;horizontal=1;startSize=26;horizontalStack=0;resizeParent=1;resizeParentMax=0;resizeLast=0;collapsible=1;marginBottom=0;whiteSpace=wrap;html=1;" parent="1" vertex="1">
          <mxGeometry x="-1732" y="-378.5" width="160" height="147" as="geometry" />
        </mxCell>
        <mxCell id="kSL2CXLgvnLuKP6OzrhX-195" value="&lt;div&gt;&amp;nbsp; + map: Map&lt;/div&gt;&lt;div&gt;&amp;nbsp; + gameView: GameView&lt;/div&gt;&lt;div&gt;&amp;nbsp; - job: Job?&lt;/div&gt;" style="text;strokeColor=none;fillColor=none;align=left;verticalAlign=top;spacingLeft=4;spacingRight=4;overflow=hidden;rotatable=0;points=[[0,0.5],[1,0.5]];portConstraint=eastwest;whiteSpace=wrap;html=1;" parent="kSL2CXLgvnLuKP6OzrhX-194" vertex="1">
          <mxGeometry y="26" width="160" height="52" as="geometry" />
        </mxCell>
        <mxCell id="kSL2CXLgvnLuKP6OzrhX-196" value="" style="line;strokeWidth=1;fillColor=none;align=left;verticalAlign=middle;spacingTop=-1;spacingLeft=3;spacingRight=3;rotatable=0;labelPosition=right;points=[];portConstraint=eastwest;strokeColor=inherit;" parent="kSL2CXLgvnLuKP6OzrhX-194" vertex="1">
          <mxGeometry y="78" width="160" height="8" as="geometry" />
        </mxCell>
        <mxCell id="kSL2CXLgvnLuKP6OzrhX-197" value="&lt;div&gt;&amp;nbsp; + start(): Unit&lt;/div&gt;&lt;div&gt;&amp;nbsp; + tick(): Unit&lt;/div&gt;&lt;div&gt;&amp;nbsp; + stop(): Unit&lt;/div&gt;" style="text;strokeColor=none;fillColor=none;align=left;verticalAlign=top;spacingLeft=4;spacingRight=4;overflow=hidden;rotatable=0;points=[[0,0.5],[1,0.5]];portConstraint=eastwest;whiteSpace=wrap;html=1;" parent="kSL2CXLgvnLuKP6OzrhX-194" vertex="1">
          <mxGeometry y="86" width="160" height="61" as="geometry" />
        </mxCell>
        <mxCell id="kSL2CXLgvnLuKP6OzrhX-202" value="object EventManager" style="swimlane;fontStyle=1;align=center;verticalAlign=top;childLayout=stackLayout;horizontal=1;startSize=26;horizontalStack=0;resizeParent=1;resizeParentMax=0;resizeLast=0;collapsible=1;marginBottom=0;whiteSpace=wrap;html=1;" parent="1" vertex="1">
          <mxGeometry x="-1885" y="-1019" width="285" height="116" as="geometry" />
        </mxCell>
        <mxCell id="kSL2CXLgvnLuKP6OzrhX-203" value="- val observers: MutableList&amp;lt;GameEventObserver&amp;gt;" style="text;strokeColor=none;fillColor=none;align=left;verticalAlign=top;spacingLeft=4;spacingRight=4;overflow=hidden;rotatable=0;points=[[0,0.5],[1,0.5]];portConstraint=eastwest;whiteSpace=wrap;html=1;" parent="kSL2CXLgvnLuKP6OzrhX-202" vertex="1">
          <mxGeometry y="26" width="285" height="27" as="geometry" />
        </mxCell>
        <mxCell id="kSL2CXLgvnLuKP6OzrhX-204" value="" style="line;strokeWidth=1;fillColor=none;align=left;verticalAlign=middle;spacingTop=-1;spacingLeft=3;spacingRight=3;rotatable=0;labelPosition=right;points=[];portConstraint=eastwest;strokeColor=inherit;" parent="kSL2CXLgvnLuKP6OzrhX-202" vertex="1">
          <mxGeometry y="53" width="285" height="8" as="geometry" />
        </mxCell>
        <mxCell id="kSL2CXLgvnLuKP6OzrhX-205" value="&lt;div&gt;+ subscribe(GameEventObserver)&lt;/div&gt;&lt;div&gt;+ unsubscribe(GameEventObserver)&lt;/div&gt;&lt;div&gt;+ notify(GameEvent)&lt;/div&gt;" style="text;strokeColor=none;fillColor=none;align=left;verticalAlign=top;spacingLeft=4;spacingRight=4;overflow=hidden;rotatable=0;points=[[0,0.5],[1,0.5]];portConstraint=eastwest;whiteSpace=wrap;html=1;" parent="kSL2CXLgvnLuKP6OzrhX-202" vertex="1">
          <mxGeometry y="61" width="285" height="55" as="geometry" />
        </mxCell>
        <mxCell id="kSL2CXLgvnLuKP6OzrhX-207" value="«interface»&lt;i&gt;&amp;nbsp;GameEventObserver&lt;/i&gt;&lt;div&gt;&lt;i&gt;&lt;br&gt;&lt;/i&gt;&lt;/div&gt;" style="swimlane;fontStyle=1;align=center;verticalAlign=top;childLayout=stackLayout;horizontal=1;startSize=26;horizontalStack=0;resizeParent=1;resizeParentMax=0;resizeLast=0;collapsible=1;marginBottom=0;whiteSpace=wrap;html=1;" parent="1" vertex="1">
          <mxGeometry x="-1925" y="-169" width="278" height="65" as="geometry" />
        </mxCell>
        <mxCell id="kSL2CXLgvnLuKP6OzrhX-208" value="" style="line;strokeWidth=1;fillColor=none;align=left;verticalAlign=middle;spacingTop=-1;spacingLeft=3;spacingRight=3;rotatable=0;labelPosition=right;points=[];portConstraint=eastwest;strokeColor=inherit;" parent="kSL2CXLgvnLuKP6OzrhX-207" vertex="1">
          <mxGeometry y="26" width="278" height="16" as="geometry" />
        </mxCell>
        <mxCell id="kSL2CXLgvnLuKP6OzrhX-210" value="+ onGameEvent(event: GameEvent): Unit" style="text;strokeColor=none;fillColor=none;align=left;verticalAlign=top;spacingLeft=4;spacingRight=4;overflow=hidden;rotatable=0;points=[[0,0.5],[1,0.5]];portConstraint=eastwest;whiteSpace=wrap;html=1;" parent="kSL2CXLgvnLuKP6OzrhX-207" vertex="1">
          <mxGeometry y="42" width="278" height="23" as="geometry" />
        </mxCell>
        <mxCell id="kSL2CXLgvnLuKP6OzrhX-209" value="" style="endArrow=block;dashed=1;endFill=0;endSize=12;html=1;rounded=0;fontSize=12;curved=0;exitX=-0.006;exitY=0.973;exitDx=0;exitDy=0;exitPerimeter=0;entryX=0.149;entryY=0.005;entryDx=0;entryDy=0;entryPerimeter=0;" parent="1" source="kSL2CXLgvnLuKP6OzrhX-185" target="kSL2CXLgvnLuKP6OzrhX-207" edge="1">
          <mxGeometry width="160" relative="1" as="geometry">
            <mxPoint x="-2213" y="-658.008" as="sourcePoint" />
            <mxPoint x="-1986" y="-211" as="targetPoint" />
            <Array as="points">
              <mxPoint x="-1887" y="-764" />
            </Array>
          </mxGeometry>
        </mxCell>
        <mxCell id="kSL2CXLgvnLuKP6OzrhX-211" value="" style="endArrow=open;endFill=1;endSize=12;html=1;rounded=0;fontSize=12;curved=0;exitX=1;exitY=0;exitDx=0;exitDy=0;entryX=0.5;entryY=0;entryDx=0;entryDy=0;" parent="1" source="kSL2CXLgvnLuKP6OzrhX-186" target="kSL2CXLgvnLuKP6OzrhX-14" edge="1">
          <mxGeometry width="160" relative="1" as="geometry">
            <mxPoint x="-1028" y="-386" as="sourcePoint" />
            <mxPoint x="-299" y="-613" as="targetPoint" />
            <Array as="points">
              <mxPoint x="-287" y="-613" />
            </Array>
          </mxGeometry>
        </mxCell>
        <mxCell id="kSL2CXLgvnLuKP6OzrhX-212" value="" style="endArrow=block;dashed=1;endFill=0;endSize=12;html=1;rounded=0;fontSize=12;curved=0;exitX=0.006;exitY=0.101;exitDx=0;exitDy=0;exitPerimeter=0;entryX=0.399;entryY=0.03;entryDx=0;entryDy=0;entryPerimeter=0;" parent="1" source="kSL2CXLgvnLuKP6OzrhX-186" target="kSL2CXLgvnLuKP6OzrhX-207" edge="1">
          <mxGeometry width="160" relative="1" as="geometry">
            <mxPoint x="-1708" y="-336" as="sourcePoint" />
            <mxPoint x="-1548" y="-336" as="targetPoint" />
            <Array as="points">
              <mxPoint x="-1807" y="-596" />
            </Array>
          </mxGeometry>
        </mxCell>
        <mxCell id="kSL2CXLgvnLuKP6OzrhX-213" value="" style="endArrow=open;endFill=1;endSize=12;html=1;rounded=0;fontSize=12;curved=0;exitX=1;exitY=0;exitDx=0;exitDy=0;entryX=0.5;entryY=0;entryDx=0;entryDy=0;" parent="1" source="kSL2CXLgvnLuKP6OzrhX-186" target="kSL2CXLgvnLuKP6OzrhX-77" edge="1">
          <mxGeometry width="160" relative="1" as="geometry">
            <mxPoint x="-562" y="-408" as="sourcePoint" />
            <mxPoint x="249" y="-613" as="targetPoint" />
            <Array as="points">
              <mxPoint x="293" y="-613" />
            </Array>
          </mxGeometry>
        </mxCell>
        <mxCell id="kSL2CXLgvnLuKP6OzrhX-214" value="onGameEvent" style="endArrow=open;endSize=12;dashed=1;html=1;rounded=0;fontSize=12;curved=0;exitX=0.75;exitY=0;exitDx=0;exitDy=0;entryX=0.5;entryY=0;entryDx=0;entryDy=0;" parent="1" source="kSL2CXLgvnLuKP6OzrhX-186" target="kSL2CXLgvnLuKP6OzrhX-106" edge="1">
          <mxGeometry x="0.0008" width="160" relative="1" as="geometry">
            <mxPoint x="-710" y="-509" as="sourcePoint" />
            <mxPoint x="-550" y="-509" as="targetPoint" />
            <Array as="points">
              <mxPoint x="-1185" y="-792" />
              <mxPoint x="-393" y="-788" />
            </Array>
            <mxPoint as="offset" />
          </mxGeometry>
        </mxCell>
        <mxCell id="kSL2CXLgvnLuKP6OzrhX-215" value="" style="endArrow=open;endSize=12;dashed=1;html=1;rounded=0;fontSize=12;curved=0;exitX=1;exitY=0.5;exitDx=0;exitDy=0;entryX=0;entryY=1;entryDx=0;entryDy=0;" parent="1" source="kSL2CXLgvnLuKP6OzrhX-187" target="kSL2CXLgvnLuKP6OzrhX-42" edge="1">
          <mxGeometry x="0.0001" width="160" relative="1" as="geometry">
            <mxPoint x="-549" y="-409" as="sourcePoint" />
            <mxPoint x="-389" y="-409" as="targetPoint" />
            <Array as="points">
              <mxPoint x="-582" y="-560" />
              <mxPoint x="-582" y="258" />
            </Array>
            <mxPoint as="offset" />
          </mxGeometry>
        </mxCell>
        <mxCell id="kSL2CXLgvnLuKP6OzrhX-216" value="" style="endArrow=open;endSize=12;dashed=1;html=1;rounded=0;fontSize=12;curved=0;exitX=1;exitY=0.5;exitDx=0;exitDy=0;entryX=0.25;entryY=1;entryDx=0;entryDy=0;" parent="1" source="kSL2CXLgvnLuKP6OzrhX-187" target="kSL2CXLgvnLuKP6OzrhX-29" edge="1">
          <mxGeometry x="-0.0002" width="160" relative="1" as="geometry">
            <mxPoint x="-641" y="-245" as="sourcePoint" />
            <mxPoint x="53" y="268" as="targetPoint" />
            <Array as="points">
              <mxPoint x="-581" y="-560" />
              <mxPoint x="-581" y="257" />
              <mxPoint x="106" y="260" />
            </Array>
            <mxPoint as="offset" />
          </mxGeometry>
        </mxCell>
        <mxCell id="kSL2CXLgvnLuKP6OzrhX-217" value="" style="endArrow=open;endSize=12;dashed=1;html=1;rounded=0;fontSize=12;curved=0;exitX=1;exitY=0.5;exitDx=0;exitDy=0;entryX=0;entryY=0.5;entryDx=0;entryDy=0;" parent="1" source="kSL2CXLgvnLuKP6OzrhX-187" target="kSL2CXLgvnLuKP6OzrhX-34" edge="1">
          <mxGeometry x="-0.0001" width="160" relative="1" as="geometry">
            <mxPoint x="-697" y="-120" as="sourcePoint" />
            <mxPoint x="-537" y="-120" as="targetPoint" />
            <Array as="points">
              <mxPoint x="-581" y="-560" />
              <mxPoint x="-581" y="258" />
              <mxPoint x="181" y="263" />
              <mxPoint x="181" y="167" />
            </Array>
            <mxPoint as="offset" />
          </mxGeometry>
        </mxCell>
        <mxCell id="kSL2CXLgvnLuKP6OzrhX-218" value="" style="endArrow=open;endSize=12;dashed=1;html=1;rounded=0;fontSize=12;curved=0;exitX=1;exitY=0.5;exitDx=0;exitDy=0;entryX=0;entryY=0.5;entryDx=0;entryDy=0;" parent="1" source="kSL2CXLgvnLuKP6OzrhX-187" target="kSL2CXLgvnLuKP6OzrhX-12" edge="1">
          <mxGeometry width="160" relative="1" as="geometry">
            <mxPoint x="-619" y="-496" as="sourcePoint" />
            <mxPoint x="-224" y="-251" as="targetPoint" />
            <Array as="points">
              <mxPoint x="-583" y="-560" />
              <mxPoint x="-581" y="258" />
              <mxPoint x="-154" y="258" />
              <mxPoint x="-154" y="-61" />
            </Array>
          </mxGeometry>
        </mxCell>
        <mxCell id="kSL2CXLgvnLuKP6OzrhX-219" value="render()" style="endArrow=open;endSize=12;dashed=1;html=1;rounded=0;fontSize=12;curved=0;exitX=1;exitY=0.5;exitDx=0;exitDy=0;entryX=0;entryY=0.5;entryDx=0;entryDy=0;" parent="1" source="kSL2CXLgvnLuKP6OzrhX-187" target="kSL2CXLgvnLuKP6OzrhX-38" edge="1">
          <mxGeometry width="160" relative="1" as="geometry">
            <mxPoint x="-620" y="-250" as="sourcePoint" />
            <mxPoint x="-460" y="-250" as="targetPoint" />
            <Array as="points">
              <mxPoint x="-581" y="-560" />
              <mxPoint x="-581" y="260" />
              <mxPoint x="-156" y="257" />
              <mxPoint x="-154" y="39" />
            </Array>
          </mxGeometry>
        </mxCell>
        <mxCell id="kSL2CXLgvnLuKP6OzrhX-220" value="" style="endArrow=open;endSize=12;dashed=1;html=1;rounded=0;fontSize=12;curved=0;exitX=0.99;exitY=0.679;exitDx=0;exitDy=0;entryX=0.5;entryY=0;entryDx=0;entryDy=0;exitPerimeter=0;" parent="1" source="kSL2CXLgvnLuKP6OzrhX-185" target="kSL2CXLgvnLuKP6OzrhX-106" edge="1">
          <mxGeometry width="160" relative="1" as="geometry">
            <mxPoint x="-909" y="-465" as="sourcePoint" />
            <mxPoint x="-749" y="-465" as="targetPoint" />
            <Array as="points">
              <mxPoint x="-393" y="-788" />
            </Array>
          </mxGeometry>
        </mxCell>
        <mxCell id="kSL2CXLgvnLuKP6OzrhX-221" value="refreshInventory()" style="endArrow=open;endSize=12;dashed=1;html=1;rounded=0;fontSize=12;curved=0;exitX=1;exitY=0;exitDx=0;exitDy=0;entryX=0.75;entryY=0;entryDx=0;entryDy=0;" parent="1" source="kSL2CXLgvnLuKP6OzrhX-182" target="kSL2CXLgvnLuKP6OzrhX-18" edge="1">
          <mxGeometry width="160" relative="1" as="geometry">
            <mxPoint x="-579" y="-395" as="sourcePoint" />
            <mxPoint x="679" y="-848" as="targetPoint" />
            <Array as="points">
              <mxPoint x="723" y="-900" />
            </Array>
          </mxGeometry>
        </mxCell>
        <mxCell id="kSL2CXLgvnLuKP6OzrhX-223" value="showGame()" style="endArrow=open;endSize=12;dashed=1;html=1;rounded=0;fontSize=12;curved=0;exitX=1;exitY=0.5;exitDx=0;exitDy=0;entryX=1;entryY=0;entryDx=0;entryDy=0;" parent="1" source="kSL2CXLgvnLuKP6OzrhX-185" target="kSL2CXLgvnLuKP6OzrhX-53" edge="1">
          <mxGeometry x="0.0008" width="160" relative="1" as="geometry">
            <mxPoint x="-1119" y="-572" as="sourcePoint" />
            <mxPoint x="-959" y="-572" as="targetPoint" />
            <Array as="points">
              <mxPoint x="-797" y="-813" />
            </Array>
            <mxPoint as="offset" />
          </mxGeometry>
        </mxCell>
        <mxCell id="kSL2CXLgvnLuKP6OzrhX-224" value="tick()" style="endArrow=open;endSize=12;dashed=1;html=1;rounded=0;fontSize=12;curved=0;exitX=1;exitY=0.5;exitDx=0;exitDy=0;entryX=0.016;entryY=1.13;entryDx=0;entryDy=0;entryPerimeter=0;" parent="1" source="kSL2CXLgvnLuKP6OzrhX-197" target="kSL2CXLgvnLuKP6OzrhX-34" edge="1">
          <mxGeometry width="160" relative="1" as="geometry">
            <mxPoint x="-977" y="107" as="sourcePoint" />
            <mxPoint x="-817" y="107" as="targetPoint" />
            <Array as="points">
              <mxPoint x="-1567" y="358" />
              <mxPoint x="201" y="362" />
              <mxPoint x="201" y="196" />
            </Array>
          </mxGeometry>
        </mxCell>
        <mxCell id="kSL2CXLgvnLuKP6OzrhX-230" value="" style="endArrow=open;endFill=1;endSize=12;html=1;rounded=0;fontSize=12;curved=0;exitX=0.5;exitY=0;exitDx=0;exitDy=0;entryX=0;entryY=0.5;entryDx=0;entryDy=0;" parent="1" source="kSL2CXLgvnLuKP6OzrhX-194" target="kSL2CXLgvnLuKP6OzrhX-189" edge="1">
          <mxGeometry width="160" relative="1" as="geometry">
            <mxPoint x="-1363" y="-353" as="sourcePoint" />
            <mxPoint x="-1203" y="-353" as="targetPoint" />
            <Array as="points">
              <mxPoint x="-1652" y="-484" />
            </Array>
          </mxGeometry>
        </mxCell>
        <mxCell id="kSL2CXLgvnLuKP6OzrhX-231" value="" style="endArrow=open;endFill=1;endSize=12;html=1;rounded=0;fontSize=12;curved=0;exitX=1;exitY=0;exitDx=0;exitDy=0;entryX=0.25;entryY=0;entryDx=0;entryDy=0;" parent="1" source="kSL2CXLgvnLuKP6OzrhX-194" target="kSL2CXLgvnLuKP6OzrhX-14" edge="1">
          <mxGeometry width="160" relative="1" as="geometry">
            <mxPoint x="-1027" y="-349" as="sourcePoint" />
            <mxPoint x="-867" y="-349" as="targetPoint" />
            <Array as="points">
              <mxPoint x="-367" y="-376" />
            </Array>
          </mxGeometry>
        </mxCell>
        <mxCell id="kSL2CXLgvnLuKP6OzrhX-232" value="" style="endArrow=open;endFill=1;endSize=12;html=1;rounded=0;fontSize=12;curved=1;entryX=0.648;entryY=0.03;entryDx=0;entryDy=0;entryPerimeter=0;" parent="1" source="kSL2CXLgvnLuKP6OzrhX-202" edge="1" target="kSL2CXLgvnLuKP6OzrhX-207">
          <mxGeometry width="160" relative="1" as="geometry">
            <mxPoint x="-1863" y="-255" as="sourcePoint" />
            <mxPoint x="-1946" y="-211" as="targetPoint" />
          </mxGeometry>
        </mxCell>
        <mxCell id="kSL2CXLgvnLuKP6OzrhX-235" value="" style="endArrow=open;endFill=1;endSize=12;html=1;rounded=0;fontSize=12;curved=1;exitX=1;exitY=0.5;exitDx=0;exitDy=0;entryX=0;entryY=0;entryDx=0;entryDy=0;" parent="1" source="kSL2CXLgvnLuKP6OzrhX-53" target="kSL2CXLgvnLuKP6OzrhX-14" edge="1">
          <mxGeometry width="160" relative="1" as="geometry">
            <mxPoint x="-1201" y="-496" as="sourcePoint" />
            <mxPoint x="-1041" y="-496" as="targetPoint" />
          </mxGeometry>
        </mxCell>
        <mxCell id="kSL2CXLgvnLuKP6OzrhX-236" value="" style="endArrow=open;endFill=1;endSize=12;html=1;rounded=0;fontSize=12;curved=1;exitX=0;exitY=0;exitDx=0;exitDy=0;entryX=1.019;entryY=0.135;entryDx=0;entryDy=0;entryPerimeter=0;" parent="1" source="kSL2CXLgvnLuKP6OzrhX-53" target="kSL2CXLgvnLuKP6OzrhX-195" edge="1">
          <mxGeometry width="160" relative="1" as="geometry">
            <mxPoint x="-1201" y="-496" as="sourcePoint" />
            <mxPoint x="-1041" y="-496" as="targetPoint" />
          </mxGeometry>
        </mxCell>
        <mxCell id="kSL2CXLgvnLuKP6OzrhX-237" value="" style="endArrow=open;endFill=1;endSize=12;html=1;rounded=0;fontSize=12;curved=0;exitX=0.25;exitY=0;exitDx=0;exitDy=0;entryX=0.991;entryY=1.036;entryDx=0;entryDy=0;entryPerimeter=0;" parent="1" source="kSL2CXLgvnLuKP6OzrhX-53" target="kSL2CXLgvnLuKP6OzrhX-189" edge="1">
          <mxGeometry width="160" relative="1" as="geometry">
            <mxPoint x="-1201" y="-496" as="sourcePoint" />
            <mxPoint x="-1041" y="-496" as="targetPoint" />
            <Array as="points">
              <mxPoint x="-923" y="-439" />
            </Array>
          </mxGeometry>
        </mxCell>
        <mxCell id="kSL2CXLgvnLuKP6OzrhX-238" value="Use" style="endArrow=open;endSize=12;dashed=1;html=1;rounded=0;fontSize=12;curved=1;exitX=0.75;exitY=0;exitDx=0;exitDy=0;entryX=0;entryY=0;entryDx=0;entryDy=0;" parent="1" source="kSL2CXLgvnLuKP6OzrhX-53" target="kSL2CXLgvnLuKP6OzrhX-106" edge="1">
          <mxGeometry width="160" relative="1" as="geometry">
            <mxPoint x="-1405" y="-496" as="sourcePoint" />
            <mxPoint x="-1245" y="-496" as="targetPoint" />
          </mxGeometry>
        </mxCell>
        <mxCell id="kSL2CXLgvnLuKP6OzrhX-239" value="start(), onGameEvent()" style="endArrow=open;endSize=12;dashed=1;html=1;rounded=0;fontSize=12;curved=0;exitX=0.5;exitY=0;exitDx=0;exitDy=0;entryX=1;entryY=0;entryDx=0;entryDy=0;" parent="1" source="kSL2CXLgvnLuKP6OzrhX-53" target="kSL2CXLgvnLuKP6OzrhX-202" edge="1">
          <mxGeometry width="160" relative="1" as="geometry">
            <mxPoint x="-1405" y="-496" as="sourcePoint" />
            <mxPoint x="-1245" y="-496" as="targetPoint" />
            <Array as="points">
              <mxPoint x="-879" y="-1016" />
            </Array>
            <mxPoint as="offset" />
          </mxGeometry>
        </mxCell>
        <mxCell id="rQqHYLFViaXi6pjhUfuh-2" value="" style="endArrow=block;dashed=1;endFill=0;endSize=12;html=1;rounded=0;entryX=0.989;entryY=0.369;entryDx=0;entryDy=0;entryPerimeter=0;" edge="1" parent="1" source="kSL2CXLgvnLuKP6OzrhX-14" target="kSL2CXLgvnLuKP6OzrhX-207">
          <mxGeometry width="160" relative="1" as="geometry">
            <mxPoint x="-277.5" y="-540" as="sourcePoint" />
            <mxPoint x="-117.5" y="-540" as="targetPoint" />
            <Array as="points">
              <mxPoint x="-1200" y="-255" />
              <mxPoint x="-1522" y="-255" />
              <mxPoint x="-1522" y="-146" />
            </Array>
          </mxGeometry>
        </mxCell>
        <mxCell id="rQqHYLFViaXi6pjhUfuh-4" value="" style="endArrow=open;endFill=1;endSize=12;html=1;rounded=0;exitX=0.999;exitY=0.238;exitDx=0;exitDy=0;exitPerimeter=0;" edge="1" parent="1" source="kSL2CXLgvnLuKP6OzrhX-205" target="kSL2CXLgvnLuKP6OzrhX-106">
          <mxGeometry width="160" relative="1" as="geometry">
            <mxPoint x="-1391" y="-954" as="sourcePoint" />
            <mxPoint x="-1231" y="-954" as="targetPoint" />
            <Array as="points">
              <mxPoint x="-392" y="-948" />
            </Array>
          </mxGeometry>
        </mxCell>
        <mxCell id="rQqHYLFViaXi6pjhUfuh-5" value="object LevelSucceedEvent" style="swimlane;fontStyle=1;align=center;verticalAlign=top;childLayout=stackLayout;horizontal=1;startSize=26;horizontalStack=0;resizeParent=1;resizeParentMax=0;resizeLast=0;collapsible=1;marginBottom=0;whiteSpace=wrap;html=1;" vertex="1" parent="1">
          <mxGeometry x="-227.5" y="-841" width="160" height="34" as="geometry" />
        </mxCell>
        <mxCell id="rQqHYLFViaXi6pjhUfuh-6" value="" style="line;strokeWidth=1;fillColor=none;align=left;verticalAlign=middle;spacingTop=-1;spacingLeft=3;spacingRight=3;rotatable=0;labelPosition=right;points=[];portConstraint=eastwest;strokeColor=inherit;" vertex="1" parent="rQqHYLFViaXi6pjhUfuh-5">
          <mxGeometry y="26" width="160" height="8" as="geometry" />
        </mxCell>
        <mxCell id="rQqHYLFViaXi6pjhUfuh-7" value="object LevelFailedEvent" style="swimlane;fontStyle=1;align=center;verticalAlign=top;childLayout=stackLayout;horizontal=1;startSize=26;horizontalStack=0;resizeParent=1;resizeParentMax=0;resizeLast=0;collapsible=1;marginBottom=0;whiteSpace=wrap;html=1;" vertex="1" parent="1">
          <mxGeometry x="-227.5" y="-795" width="160" height="34" as="geometry" />
        </mxCell>
        <mxCell id="rQqHYLFViaXi6pjhUfuh-8" value="" style="line;strokeWidth=1;fillColor=none;align=left;verticalAlign=middle;spacingTop=-1;spacingLeft=3;spacingRight=3;rotatable=0;labelPosition=right;points=[];portConstraint=eastwest;strokeColor=inherit;" vertex="1" parent="rQqHYLFViaXi6pjhUfuh-7">
          <mxGeometry y="26" width="160" height="8" as="geometry" />
        </mxCell>
        <mxCell id="rQqHYLFViaXi6pjhUfuh-9" value="object RenderEvent" style="swimlane;fontStyle=1;align=center;verticalAlign=top;childLayout=stackLayout;horizontal=1;startSize=26;horizontalStack=0;resizeParent=1;resizeParentMax=0;resizeLast=0;collapsible=1;marginBottom=0;whiteSpace=wrap;html=1;" vertex="1" parent="1">
          <mxGeometry x="-227.5" y="-751" width="160" height="34" as="geometry" />
        </mxCell>
        <mxCell id="rQqHYLFViaXi6pjhUfuh-10" value="" style="line;strokeWidth=1;fillColor=none;align=left;verticalAlign=middle;spacingTop=-1;spacingLeft=3;spacingRight=3;rotatable=0;labelPosition=right;points=[];portConstraint=eastwest;strokeColor=inherit;" vertex="1" parent="rQqHYLFViaXi6pjhUfuh-9">
          <mxGeometry y="26" width="160" height="8" as="geometry" />
        </mxCell>
        <mxCell id="rQqHYLFViaXi6pjhUfuh-11" value="object BossKilledEvent" style="swimlane;fontStyle=1;align=center;verticalAlign=top;childLayout=stackLayout;horizontal=1;startSize=26;horizontalStack=0;resizeParent=1;resizeParentMax=0;resizeLast=0;collapsible=1;marginBottom=0;whiteSpace=wrap;html=1;" vertex="1" parent="1">
          <mxGeometry x="-227.5" y="-704" width="160" height="34" as="geometry" />
        </mxCell>
        <mxCell id="rQqHYLFViaXi6pjhUfuh-12" value="" style="line;strokeWidth=1;fillColor=none;align=left;verticalAlign=middle;spacingTop=-1;spacingLeft=3;spacingRight=3;rotatable=0;labelPosition=right;points=[];portConstraint=eastwest;strokeColor=inherit;" vertex="1" parent="rQqHYLFViaXi6pjhUfuh-11">
          <mxGeometry y="26" width="160" height="8" as="geometry" />
        </mxCell>
        <mxCell id="rQqHYLFViaXi6pjhUfuh-13" value="object GameFinishedEvent" style="swimlane;fontStyle=1;align=center;verticalAlign=top;childLayout=stackLayout;horizontal=1;startSize=26;horizontalStack=0;resizeParent=1;resizeParentMax=0;resizeLast=0;collapsible=1;marginBottom=0;whiteSpace=wrap;html=1;" vertex="1" parent="1">
          <mxGeometry x="-227.5" y="-661" width="160" height="34" as="geometry" />
        </mxCell>
        <mxCell id="rQqHYLFViaXi6pjhUfuh-14" value="" style="line;strokeWidth=1;fillColor=none;align=left;verticalAlign=middle;spacingTop=-1;spacingLeft=3;spacingRight=3;rotatable=0;labelPosition=right;points=[];portConstraint=eastwest;strokeColor=inherit;" vertex="1" parent="rQqHYLFViaXi6pjhUfuh-13">
          <mxGeometry y="26" width="160" height="8" as="geometry" />
        </mxCell>
        <mxCell id="rQqHYLFViaXi6pjhUfuh-15" value="UpdateHealthEvent" style="swimlane;fontStyle=1;align=center;verticalAlign=top;childLayout=stackLayout;horizontal=1;startSize=26;horizontalStack=0;resizeParent=1;resizeParentMax=0;resizeLast=0;collapsible=1;marginBottom=0;whiteSpace=wrap;html=1;" vertex="1" parent="1">
          <mxGeometry x="-229" y="-882" width="160" height="34" as="geometry" />
        </mxCell>
        <mxCell id="rQqHYLFViaXi6pjhUfuh-16" value="" style="line;strokeWidth=1;fillColor=none;align=left;verticalAlign=middle;spacingTop=-1;spacingLeft=3;spacingRight=3;rotatable=0;labelPosition=right;points=[];portConstraint=eastwest;strokeColor=inherit;" vertex="1" parent="rQqHYLFViaXi6pjhUfuh-15">
          <mxGeometry y="26" width="160" height="8" as="geometry" />
        </mxCell>
        <mxCell id="rQqHYLFViaXi6pjhUfuh-17" style="edgeStyle=orthogonalEdgeStyle;rounded=0;orthogonalLoop=1;jettySize=auto;html=1;" edge="1" parent="1" source="rQqHYLFViaXi6pjhUfuh-15" target="kSL2CXLgvnLuKP6OzrhX-106">
          <mxGeometry relative="1" as="geometry">
            <mxPoint x="-305" y="-822" as="sourcePoint" />
            <mxPoint x="-305" y="-873" as="targetPoint" />
          </mxGeometry>
        </mxCell>
        <mxCell id="rQqHYLFViaXi6pjhUfuh-18" style="edgeStyle=orthogonalEdgeStyle;rounded=0;orthogonalLoop=1;jettySize=auto;html=1;" edge="1" parent="1" source="rQqHYLFViaXi6pjhUfuh-5" target="kSL2CXLgvnLuKP6OzrhX-106">
          <mxGeometry relative="1" as="geometry">
            <mxPoint x="-219" y="-855" as="sourcePoint" />
            <mxPoint x="-382" y="-707" as="targetPoint" />
          </mxGeometry>
        </mxCell>
        <mxCell id="rQqHYLFViaXi6pjhUfuh-19" style="edgeStyle=orthogonalEdgeStyle;rounded=0;orthogonalLoop=1;jettySize=auto;html=1;" edge="1" parent="1" source="rQqHYLFViaXi6pjhUfuh-7" target="kSL2CXLgvnLuKP6OzrhX-106">
          <mxGeometry relative="1" as="geometry">
            <mxPoint x="-244" y="-743" as="sourcePoint" />
            <mxPoint x="-407" y="-595" as="targetPoint" />
          </mxGeometry>
        </mxCell>
        <mxCell id="rQqHYLFViaXi6pjhUfuh-20" style="edgeStyle=orthogonalEdgeStyle;rounded=0;orthogonalLoop=1;jettySize=auto;html=1;" edge="1" parent="1" source="rQqHYLFViaXi6pjhUfuh-9" target="kSL2CXLgvnLuKP6OzrhX-106">
          <mxGeometry relative="1" as="geometry">
            <mxPoint x="-258" y="-661" as="sourcePoint" />
            <mxPoint x="-421" y="-513" as="targetPoint" />
          </mxGeometry>
        </mxCell>
        <mxCell id="rQqHYLFViaXi6pjhUfuh-21" style="edgeStyle=orthogonalEdgeStyle;rounded=0;orthogonalLoop=1;jettySize=auto;html=1;" edge="1" parent="1" source="rQqHYLFViaXi6pjhUfuh-11" target="kSL2CXLgvnLuKP6OzrhX-106">
          <mxGeometry relative="1" as="geometry">
            <mxPoint x="-309" y="-574" as="sourcePoint" />
            <mxPoint x="-472" y="-426" as="targetPoint" />
          </mxGeometry>
        </mxCell>
        <mxCell id="rQqHYLFViaXi6pjhUfuh-22" style="edgeStyle=orthogonalEdgeStyle;rounded=0;orthogonalLoop=1;jettySize=auto;html=1;" edge="1" parent="1" source="rQqHYLFViaXi6pjhUfuh-13" target="kSL2CXLgvnLuKP6OzrhX-106">
          <mxGeometry relative="1" as="geometry">
            <mxPoint x="-333" y="-582" as="sourcePoint" />
            <mxPoint x="-496" y="-434" as="targetPoint" />
          </mxGeometry>
        </mxCell>
      </root>
    </mxGraphModel>
  </diagram>
</mxfile>
